<?xml version="1.0" encoding="UTF-8"?>
<svg id="Layer_1" xmlns="http://www.w3.org/2000/svg" viewBox="0 0 701.3 290.3">
  <defs>
    <style>
      .cls-1 {
        fill: none;
      }

      .cls-2 {
        fill: #f3c349;
      }
    </style>
  </defs>
  <g id="Layer_3">
    <g>
      <path class="cls-2" d="M194.2,265.6s0,0,0,0h0s0,0,0,0h0Z"/>
      <path class="cls-2" d="M251.9,224.3l3.4-3.9,4-7.4,6.3-16.3,3.5-8.4s2.2-3.8-.8.4-7.2,9.7-7.2,9.7l-3.1,6.2s1.4,2.8,1,3.9,1.3-1.3-2,2.2c-3.3,3.5-4.5,3.7-4.9,5.5s-1.3,4.6-1.3,4.6l-3.4,4.8,4.6-1.3"/>
      <path class="cls-2" d="M49,37.3l4-1.6,3.7-3.1,4.1-3.2,9.2-5,1.4-1.2,4.6-4.1,3-3.3-2.4-3.8-6.6,3.1-12.7,5.6s-4.2,2-5.6,3.2-4.2,4.7-4.2,4.7v6.2c0,0,1.5,2.5,1.5,2.5h0Z"/>
      <path class="cls-2" d="M86.4,16.3l1.3-3,8.3-5.3s6-3.4,12.1-3.7c6.1-.3,12.1-.4,12.1-.4l8.8-1.2,15.8-2.1s7.4,1.9,6.5,2.3,20.6-7.3-11.3,4.7c-31.9,11.9-42,14.5-42,14.5,0,0-11.9,5.1-15.9,7.7s-8.5,6.9-8.5,6.9c0,0-2.7,2.3-4.7,3s-6.2,1.8-6.7.9-1.8-5.9-1.8-5.9c0,0,10.2-2.2,12.1-4.5s3.5-5.9,7.3-8.9,7.1-5.4,7.1-5.4l-.6.7h0Z"/>
      <path class="cls-2" d="M19.8,84.8l-2.4-1-2.1-3.9,1.7-4.9,2.6-3.8,6.7-9.8s1.9-4.6,2.3-4.9,3.5-3.6,3.5-3.6c0,0,3.3-3.9,5-5.2s4.6-3.3,4.6-3.3c0,0,1.3-.2,4.6-2s10.4-5.4,10.4-5.4l-4.1,6.4s-2.1,1.7-5.6,5.1-4.9,4.8-4.9,4.8l-4.6,4.7-4.4,5s-6.8,8-8.3,12-1.4,4.3-2.1,5.9-2.8,3.7-2.8,3.7h0Z"/>
      <path class="cls-2" d="M25.2,84.7l-2.9,2s-.5.8-2.9.3-4.4-1.2-5.7-1-4,1-5.4,4.4-3.3,9.7-3.3,9.7l-2.6,14.7s1.4-6.1-.8,7.9c-2.2,13.9-1.4,21.8-1.4,21.8l.2,7.9s3,4.9,3.9,6.4,1,4.6,1,4.6c0,0,2.5-4.5,2.6-4.9s2.2-14.5,2.2-14.5c0,0,0-7.6.4-11.1s.4-5.7,1.8-9.1-1,.8,3-7.2,6.9-14.2,6.9-14.2l3.1-4.4,4-5.6,5.4-8.6s1.8-3.9,3.7-7.1,4.6-8.5,4.6-8.5c0,0,1.2-2.3,5.4-9.9,4.1-7.6,6.7-10.6,6.7-10.6,0,0,4.1-6.1,5.2-7.3s-4.4,2.3-4.4,2.3l-4.2,5.4-6.6,10s-4.6,6.4-6.5,9.4-5.3,10-5.3,10l-4.6,8.9-3.4-1.6h0Z"/>
      <path class="cls-2" d="M5.1,168.1s-.8-1.7-1.6,2.8,0,9.9,0,9.9l5.3,7.2,2.9,8.3s1.4,3.8,2.5,6,5.2,12.1,5.2,12.1l.6,1.4,3.7,5.5,5.5,7.4,4.2,5.1,8.9,12.3s6.8,5.5,7.3,6.6-2.9,1.9-2.9,1.9l1,3.1s3.2,3.1,5.7,5c2.5,2,2.6,1.6,5.5,4.3s9.9,6.6,9.9,6.6c0,0,7.4-.5,11.6-.8,4.1-.3,1.8-5.2,1.8-5.2l-7.2-6.6-10-8.1s-13.1-8.8-14.1-10.5-1.9-4.1-3.2-6-5.1-6.2-5.1-6.2c0,0-3.6-7.9-4.7-10.2s-1.8-4-3.5-5.7-2,.5-4.4-4.7c-2.4-5.2-4.9-8.1-7-11.1s-7-9.2-7-9.2l-5.5-11.5-5.4-9.9h0Z"/>
      <path class="cls-2" d="M66.8,61.1l-3.2,4.4-3.4,7.3-2.4,9.5-2.3,5.6-.5,2.9s-2.2.2-3.2,6c-1,5.9-1.9,12.8-1.9,12.8l-2.9,5.1-3.3,3.5,1.4,8.4.7,6s4.6,8.2,5.7,10.5,2.4,7,2.4,7c0,0-.3,4.2,1.4,8.5,1.7,4.4,3.7,12,4,14.3s2.3,4-.5,3.1-7.4-9.2-7.4-9.2c0,0-1.6-10.5-2.9-12s-2.5-3.2-2.5-3.2c0,0,.3,9.2,1.2,13.2.8,4,1.8,6.2,2.4,10.6.6,4.5,2.5,6.3.3,6.8-2.2.5-.9,9.4-4.5-.8-3.7-10.1-4.3-16.6-4.3-16.6,0,0-.4-3.9-1.8-5.5s-2.5-4.6-2.5-4.6c0,0,4.5-10.3,4.8-12.9s-.4-8.6-.4-8.6l-3-2.6-1.4-10,3.6-14.7s0-5.7,3.3-12.1,2.6-6.4,4.7-10.1,3.5-6.3,5.8-10.1,5.5-8.3,5.5-8.3c0,0,3.5-7.8,5.9-7.7s2.5,2.7,2.5,2.7l-1.2.8h0Z"/>
      <path class="cls-2" d="M30.1,150.4s-.6-1.9-2.4.3-4.5,8.9-4.5,8.9c0,0-1.8.4,1.6,8.2,3.4,7.8,5.6,16.1,5.6,16.1,0,0,.2,2,1.6,6.7s1.9,7.5,5.5,13.5c3.6,6.1,4.5,6.9,6.8,10.7,2.4,3.8,5.2,7.5,6.9,10,1.7,2.5,3.7,4.4,3.7,4.4,0,0,3.3,2,4,2.9s2.1,3.5,2.1,3.5l-9-5.6s-1.3-.6-4.2-5.5c-3-4.9-8.3-11.1-11.1-15.5-2.8-4.4-3.3-4.8-4.7-7.2-1.5-2.5-5.1-5.9-6.2-10.7-1.1-4.8-6.3-22.9-6.3-22.9,0,0-1.4-11-1.5-12.7s-.6-26.2-1.7-3.4c-1.2,22.8,2.1,32.6,2.1,32.6,0,0-.2,5.7,2.3,9.5,2.5,3.8,6,7.9,6,7.9,0,0,6.7,6,7.3,7.3s2.6,3.2,3.3,4.9,4,6.1,5.1,8.6,2.8,5,4.6,7.2,3.9,4.2,6.1,6.8c2.1,2.6,9.8,7.1,9.8,7.1,0,0,3.1,1.2,1.7-1.8s1-2.2,1-2.2l3.5,1.4.6-6.1-4.2-7.2s-5.4-7.2-8.5-11.4-5.6-6-7.6-12.1c-2-6.1-3.1-8.2-3.1-8.2l-9.3-18.1-2.5-10.4s-1-5.5-1.5-8.8-2.7-8.7-2.7-8.7h0Z"/>
      <path class="cls-2" d="M67.4,44.7l-3.4,1.4s-1.8.3-3.6,4.2-3.3,7.8-3.3,7.8l-4.7,4.1-5.9,9.9-2.5,2.1-9.7,11.2s-2.3,5.7-3.1,8-3.9,7.2-3.9,7.2l.4,16.7-1.5,5.7.5,7.2-.3,5.8s-1.9,6.1-1.6,7.6,2.5,3.5,2.5,3.5l4.9-4.2,1.9-7.4-.4-10.6s.6-6.8,1.7-10.6,2.4-13.2,2.4-13.2c0,0,.6-7.3,1.2-9.3s0-.2,2.4-5.2,7.1-12.2,8-13.2,4.4-5.8,5.8-7.7,2.4-3.1,4.1-5.7,5.9-8.2,6.4-8.7,1.8-6.6,1.8-6.6h0Z"/>
      <path class="cls-2" d="M24,101.2l-.6,7s-2,5.3-2.8,7.9c-.9,2.6-2.4,7.6-2.4,7.6l-3,5.6s5,1.6,5.2,2.7-.5,7.6-.5,7.6l1,7.7s3.7.5,3.4-.8-.3-4.5-.5-6.4-.3-3.8-.5-6.5-.2-5.4-.4-6.2-1.5.6-.9-2.8,2.2-8.3,2.9-9.2.1-.8.5-3-.1-4.8-.1-4.8l-1.2-6.5h0Z"/>
      <path class="cls-2" d="M71.6,197.4l-3.4-2.5-5.7-7.5-2.5-4.4-2.2-3.2-2.7-2.6s-1.6-.8-1.3.7c.3,1.6-.4,3.1,1.2,6.8s2.4,4.5,3.7,6.2,3.8,4.8,3.8,4.8l-1.4,4.9-1.5,2.4-4.9-1.8-3.4-6.2-2.9-4.7-2.7-4.6s-5.8-9.1-6.2-10.8-1.5-8.8-1.5-8.8l.5,8.2s.2,4.9,1.4,6.4,1.6,2,3,5.4c1.4,3.5,2.4,5.6,4.1,9s.9,6,3.5,9.7c2.6,3.7,5.5,7.1,6.6,9.1s4.5,6.9,5.9,8.6,1.9.7,3.7,4,3.2,5,6.6,8.7c3.3,3.6.8,4.6,7.6,6.6,6.7,2,9.1,1.8,13.3,3.7,4.2,1.8,16.6,9.1,6.1.6-10.4-8.5-14.6-12.7-14.6-12.7,0,0-2.8,0-6.5-3.2-3.7-3.2-7.5-4.9-8.6-7.3s-3.3-2.9-2.3-5.6,2.4-7.4,2.4-7.4c0,0-.8-4.6,1.6-2.4s5.3,5.6,5.3,5.6l1.1,5.4,4.1,3.3,9.5,9.7s4.2.7,5.5,2.1,3.8,3.4,7.3,5c3.5,1.6-2.5,1.4,11.1,3.6,13.6,2.2,18.3,2.6,19.9,2.8s4.9-1.7,4.9-1.7c0,0,.5-3.1-2-3.6s-17.2-2-17.2-2l-15.8-5.5s-4-2-6.2-5.3c-2.2-3.3-5.5-6.1-7.4-8.7s-5.5-6.8-5.5-6.8l-9.6-7.9-5.7-6.4h0Z"/>
      <path class="cls-2" d="M80.9,260.3l-6.4-2.3-3-3.7-3.7-3.3-4.8-1.7-2.7-3.1s.3-.2,7.4,1.1c7.1,1.3,9.6,2,11.4,4s4.4,2.8,5.2,4.7.4,3.6.4,3.6l-3.9.7h0Z"/>
      <path class="cls-2" d="M102.8,253.2s-.8-2.3-2.6-1.7-2.5,1.8-2.5,1.8l9.3,3.6,2.9-.2,17.4,3.1s2.9-1.6,6.4-1.8c3.6-.2,6.9.2,6.9.2,0,0,3.5-.5,7-1.3,3.5-.8,7-.9,10.7-1,3.7,0,20.3,0,20.3,0l11.6-4.7,7.3-3.8,2.5-2.8-16,1.2s-9.4,4.3-11,4.7-9.6.3-9.6.3c0,0-39,2.6-40.2,2.7s-5.7-.2-5.7-.2h-14.8c0-.1,0-.1,0-.1Z"/>
      <path class="cls-2" d="M88.4,261.6c-1.1.7-3.6,1.3-3.6,1.3l3.3,4.6,18,5.6s.8,4.6,5.2,5.5c4.3.9,14.9-2.6,18.1-2.3,3.2.4,1.9,3.4,9,2.4s12.8-1.3,16.9-1.9c4.2-.5,6.4.5,9.9-.7s7.3-1.9,11.7-3.2c4.4-1.3,8.2-2.8,8.2-2.8l2.2-2.6s10.2-5.6-7.9.1c-18.1,5.7-32.4,3.2-34.3,3.6-1.9.4-11.1.8-11.1.8h-11c0,0-6.7-.8-13.3-2.7-6.6-2-10.2-2.7-11-2.8s-10.3-4.8-10.3-4.8h0Z"/>
      <path class="cls-2" d="M91,271.6s-.9-1.7-2.6.1-4.5,5.4-1.1,6.7,1.3,0,5.8,2.4c4.5,2.3.8,1.8,6.9,3.4,6.1,1.6,7.8,2.3,11.5,3.1,3.7.8,4.4,2,10.6,1.2,6.1-.8,5.4-1.2,11-.7,5.6.5,7.4.3,10.1,1.2,2.7.9,8.8,1.6,14,1.1,5.1-.5,7.2-.9,9.1-1.5,1.9-.7.4-.8,5.1-1.8s9.4-1.9,9.4-1.9c0,0,12-2.4,15-4,3-1.6,5.2-3.1,8.2-3.5s4.8-1,8.8-2.4c4-1.4,9-4.2,11.5-6.2,2.5-1.9,6.2-4.3,8.1-6s5.9-5.9,5.9-5.9c0,0,1.8-4-7.8,1.3-9.6,5.4-15.5,10.3-15.5,10.3l-17,6.4s-6.8-.1-9.5,1.1-11.3,4.4-11.3,4.4c0,0-1.6-.3-7.7.9s-11.7,1.7-11.7,1.7c0,0-9.1.4-11.8,0-2.8-.5-13.8-1.5-17.7-.8-3.9.7-8.7.5-11.8.6s-7.6-.3-9.5-1.2c-1.9-.9-10.1-4.4-10.1-4.4l-6-2.6v-3.1c.1,0,.1,0,.1,0Z"/>
      <path class="cls-2" d="M61.1,115.7c-.4-.8-1.5-6-2.3-5.7s-7.4,5.7-7.4,5.7c0,0,1.8,4.8,1.8,6.9s1.3,7.4,1.3,7.4c0,0,.3,6.8.7,8.5s2.4,6.7,3.2,5.3,1.3-4.3,1.3-4.3l-3.1,8.4,6.2,11.6,2.2,13.7s1.5,5.4,2.6,8.7,2.4,6.7,2.4,6.7c0,0,3.2,5.2,6.1,8s4.3,1.7,7.2,7.3c2.9,5.5,6.8,8.9,8.6,11.3s-.5,1.9,5.1,6.1c5.5,4.2,10.3,7.5,10.3,7.5l13.6,5.7,6.5,1s6.2-1.5,2.1-3.7c-4.1-2.2-5.7-1.8-9.3-4.2-3.7-2.4-7.9-6.4-7.9-6.4,0,0-1.9-2.4-7-7-5.1-4.6-18-15.7-18-15.7,0,0-10.3-16.7-12-21s-4-9.8-4-9.8c0,0-2-6.5-2.4-9s-3-7.9-3-7.9l-2.1-5.3-.6-7.7s.2-7.8.8-10.2-.4-6.6-.4-6.6l-2.6-5.2h0Z"/>
      <path class="cls-2" d="M71.7,68.1l1.5-3.5s2.6-6.3,5.2-9.8c2.6-3.5,4.4-5.1,7.5-8.1s8.9-7.7,8.9-7.7c0,0,10.6-7.2,13.6-9.3s5.6-3.4,10.7-6.3c5.1-2.9,9.7-5.1,9.7-5.1,0,0,6.4-1.6,11.8-3.7s12.8-3.9,12.8-3.9l10.2-1.4,30.5-2.4,2.6-4.2-10-2.8-13.4,3.5-14.3-1.7-24.9,11s-12.8,5.7-17.5,7.8c-4.7,2.1-14.9,3.6-14.9,3.6l-28.5,19.9-3.5,5.8-2.9,14.8-3.7,9.6s-1.6,4.6-3,8-3.6,8.6-3.8,9.7,3.1,2.6,3.1,2.6l5.8-3.4-1,5.7-1,2.1-.6,7.6,9.8-2.8.5-7.9.5-9.2s.7-8.9,1.2-10.5.7-4.4.9-6-3.8-2.2-3.8-2.2h0Z"/>
      <path class="cls-2" d="M88.8,56.4s-.3-2.3,2.3-5.2,10.9-11.3,10.9-11.3c0,0,9.2-6.7,13.2-9.4s6.9-4,10.4-5.8,10.4-4.4,10.4-4.4c0,0,11.2-5.2,15.7-6.8,4.5-1.6,5.2-1.8,8.8-2.4s4.9-.6,8.3-1,18.3.2,20,.3,1.5.1,10.5,2.2c9,2.1,17.6,4.4,21.2,5.7,3.6,1.3,7.2,4,7.2,4l-5.9-.6-21.7-3.6-35.5-5.9-11.6,9.2s-2.4,2.2-6.5,6.3c-4.1,4.1-8.2,5.8-11.1,9.3s-5.5,5.9-7.5,8.1-8.3,7.7-8.3,7.7l-11.9,5.1s-12.2-1.1-13.9-.8-5-.9-5-.9h0Z"/>
      <polygon class="cls-2" points="84.1 80 84.6 86 90.6 86.3 97.5 76.7 106.6 63.7 104.3 62.9 97.1 64.2 91.8 70.1 84.1 80"/>
      <path class="cls-2" d="M86.1,91.2c-.4,0-3.2,2.3-5,6.3s-8.4,8.7-8.2,11.9-.3,4-1.6,9.1-2.1,5.9-.6,9.8c1.5,3.9,1.9,6.3,3,8.1s3.4,4.1,4,4.3,2.4-8.5,2.4-8.5c0,0-.1-7.3,1.3-13.3,1.4-6.1,3.5-10.3,4-12.9s.8-14.9.8-14.9h0Z"/>
      <path class="cls-2" d="M70,144.6l.4,12.7,2.6,5.8s1.5,4.5,3.4,8.1.3,3.3,4.8,10.3c4.5,7.1,6.8,10.3,8,13.1s5.2,7.8,5.2,7.8l6.8,4.2,12.8,12.1,5.7,5.3,17.6,5.8s-.5,1.2-5.6-2.4-7-7.7-10.8-10.7c-3.8-3-11.8-6.9-14.5-11.5s-11.3-13.4-12.6-15.9-1.4-2.6-3.8-7.6c-2.4-5-6.2-12.8-6.2-12.8l-13.8-24.4Z"/>
      <path class="cls-2" d="M81.1,142.6s-1.6,3.2-1.8,3.6.1,1,.6,4.6c.5,3.6,1.2,7.1,2.8,9.9s2.9,4,5,8.7c2.2,4.7,3.7,6.4,5.2,10.1,1.6,3.7,1.8,4.6,3.8,7.5,1.9,3,5.6,8.5,7.2,10.3s1.5,1.7,5.3,5.4c3.9,3.7,4.2,3.9,6.7,6,2.5,2.1.1,2,5.3,5.2,5.2,3.3,6.6,3.8,9.1,6.7,2.5,2.9,8.4,2.8,7.1,2.1s-8.6-6.9-8.6-6.9c0,0,3.3,5.3-3.8-3.9-7.1-9.2-19.3-22.5-20-23.4s-4.3-5.1-4.3-5.1l-3.6-7s-2.2-4.7-3.5-6.9-2.6-3.7-4.1-6.3-4-6.1-4-6.1l-1-3.1-3.6-11.4h0Z"/>
      <path class="cls-2" d="M145,238.6l14.5-.3,17.4-3.1,12.4-6.8,6.6-2,5.3-2.9-15.8.3-11.4,2.1s-11.1,2.2-12.9,1.6,1.9-4.7-8.4-1.4c-10.3,3.3-19.2.4-19.2.4,0,0,3.3,7.8,4.1,8.7s5.7,3.2,5.7,3.2l1.6.3h0Z"/>
      <path class="cls-2" d="M197.7,238.5l-3.2,1.4-15.1,6.4-9,2-5.2-.2-10.4,1.2s-10.5-.5-11.8-.3-.5-3.4-.5-3.4c0,0,5.4-3.8,7-3.3s5.3,3.3,6.6,3.5,5.9-1.1,8.9-2,1,.6,8.1-.4c7.1-1,11-2.5,11-2.5,0,0-1.4,1.2,1.2-.5s6.9-2.9,6.9-2.9l5.5.9h0Z"/>
      <path class="cls-2" d="M110.7,260.7c-.5.4-2.7.9-2.7.9l2,3.4,6.6,1.4,13.1-3.2s3.1,5.1,7.5,5c4.4,0,18.5-1.5,18.5-1.5,0,0-1.3.7,1.7.2,3.1-.6,9.4-1.8,11.5-1.7s9.5-.8,9.5-.8l11-2.8,10.2-3s4.3-1.5,8.2-3.6c3.9-2.1,12-5.5,12-5.5l12.1-8.7,5.6-9.1s-3.6,1.6-8.8,4c-5.3,2.3-12.1,6.1-12.1,6.1,0,0-3.2,2.5-10.9,6.3-7.7,3.7-16.4,6.6-16.4,6.6,0,0-2.8.5-5,1.7-2.2,1.2-6.4,2.7-8.6,3s-7.2.5-9.4.9-7.8.2-7.8.2l-9.5.8-8.8-.2h-15.2c0,0-14-.2-14-.2h0Z"/>
      <path class="cls-2" d="M98.9,261.7l-3.3-1.5-3.9-3.4-7.1-3.7-8.7-8.6-6.6-1.1,3.6-2.6,6.1,2.3s4.1,1.8,5,3.2,4.1,2.9,5.1,3.7,2.1,2.2,2.1,2.2l5.3,3,4,2.2,2.7,2,.8,1.9-5,.4h0Z"/>
      <path class="cls-2" d="M192.6,273.9l.8-4.4s5.5-3.4,9.3-5.4,4.5-1.5,8.4-4.9c4-3.4,4.6-2.9,9.6-6.8s8.9-6.6,8.9-6.6c0,0,4.9-2.5,7.9-5.4s9.5-7.6,9.5-7.6c0,0,3.1-1.6,6.2-4.4,3.1-2.8,5.1-6.7,6.5-6.1s1.1,4.9,1.1,4.9c0,0-.4,2.3-2.5,5-2.1,2.7-.4,1.3-5.7,7.1-5.4,5.8-12.4,12-12.4,12l-6.8,3.3s-4.6,0-8.3,2.4c-3.7,2.5-4.2,2.5-8.2,4.5-4,2-11,6-11,6,0,0-2.9.5-4.8,1.7s-8.4,4.6-8.4,4.6h0Z"/>
      <path class="cls-2" d="M201.2,241.1l8.9-8.3s6.9-6.2,9.4-8.1,7.4-2.5,7.4-2.5c0,0,5-1.1,7.8-4s5-4.9,7.6-6.4,6.7-3.2,6.7-3.2l-.7,5.5s1.3-2.2-4.6,3.6-6.4,7-10.3,9.9-12.4,7-12.4,7l-9.8,4.6-10.1,1.9h0Z"/>
      <path class="cls-2" d="M271.9,200.5l-7.7,6.9.3,2.8-1.9,6.1,4.7.5s1-2.2,2.1-5,2.2-5.9,2.2-5.9l.2-5.4h0Z"/>
      <path class="cls-2" d="M274.5,173.7c-1,.2-5.3,3.9-5.3,3.9l-2.7,5.4-4,4.9s-6.5,3.7-7.4,3.5-6.6,3.6-6.6,3.6l-3.1,3.8,3.9,2.5s3.2-1,5.4-3.1,3.1-3.5,4.8-5.1,3.7-2.6,5.3-4.7,1.8-2.6,4.2-4.9,5-4.2,5-4.2l.4-5.7h0Z"/>
      <path class="cls-2" d="M206.5,221.6l8.9-4.9,7.3-2.7,2.3-6.6s4.3-2.8,5.1-2.6.9,4.3.9,4.3l-4.1,3.1-4.1,3.9-5.5,3.6-7.9,3.1-2.9-1.2h0Z"/>
      <path class="cls-2" d="M198.8,228.9c-1.2,0,5.2-3.6-4,.5-9.3,4.1-13.6,6.3-13.6,6.3l-6.2,2.3-2.8,1s-.6,2.8,3.9,1.6c4.5-1.2,6.6-1.8,6.6-1.8,0,0,8.3-4.7,9.7-4.4s-.7,1.7,4.4,0c5-1.7,11.4-4.5,11.4-4.5,0,0,5-3.9,8.8-5.2,3.8-1.3,12.4-5.7,12.4-5.7,0,0,7.5-5,9.3-6.7s3.8-4.8,3.8-4.8l-2.1-2.1-7.1,8.1s-6.6,2.8-7.6,4-6.8,4.2-8,4.7-6.7,3.1-6.7,3.1l-5.5,2.1-6.7,1.5h0Z"/>
    </g>
  </g>
  <g>
    <rect class="cls-1" x="143.6" y="38.3" width="441.9" height="111.3"/>
    <path d="M145.3,128.5c3.9-.8,6.5-3.5,6.5-10.4V49.3c0-6.9-2.6-9.6-6.5-10.4v-.6h13.8l50.1,74.5v-63.5c0-6.9-2.5-9.6-6.5-10.4v-.6h14.3v.6c-4.3,1-6.4,3.3-6.4,10.4v79.8h-1.4l-56-83.2c-.1,1.1-.1,2.1-.1,3.4v68.8c0,7.1,2.3,9.5,6.5,10.4v.6h-14.3v-.6Z"/>
    <path d="M264.1,37c26.6,0,44.5,18.1,44.5,46.6s-17.9,46.6-44.5,46.6-44.6-18.1-44.6-46.6,17.8-46.6,44.6-46.6ZM264.1,129.1c21.3,0,35.5-14.5,35.5-45.4s-14.3-45.4-35.5-45.4-35.5,14.5-35.5,45.4,14.1,45.4,35.5,45.4Z"/>
    <path d="M385.3,64.2c-5.3-14.6-15.5-25.9-31.3-25.9s-31.3,14.5-31.3,45.4,13.1,45.4,31.3,45.4,26-11.3,31.3-25.9l5.5,3.9c-3.9,10.5-16.1,23.3-36.3,23.3s-40.9-18.1-40.9-46.6,16.9-46.6,40.9-46.6,32.4,12.8,36.3,23.3l-5.5,3.9Z"/>
    <path d="M391.9,128.5c3.9-.8,6.5-3.5,6.5-10.4V49.3c0-6.9-2.6-9.6-6.5-10.4v-.6h22v.6c-4.3,1-6.5,3.3-6.5,10.4v35.8h46.3v-35.8c0-6.9-2.6-9.6-6.5-10.4v-.6h22v.6c-4.3,1-6.5,3.3-6.5,10.4v68.8c0,7.1,2.3,9.5,6.5,10.4v.6h-22v-.6c3.9-.8,6.5-3.5,6.5-10.4v-31.6h-46.3v31.6c0,7.1,2.3,9.5,6.5,10.4v.6h-22v-.6Z"/>
    <path d="M492.6,127.8h22.4c12.1,0,19.6-8.4,22-20.8h.8l-3.3,22h-61.9v-.6c3.9-.8,6.5-3.5,6.5-10.4V49.3c0-6.9-2.6-9.6-6.5-10.4v-.6h61.9l3.3,16.9h-.8c-1.8-9.4-8.5-15.6-16.8-15.6h-27.6c-3.1,0-4.5,4-4.5,9.8v31h19.1c5.8,0,13.5.2,14-7.8h.6v18.1h-.6c-.5-8.3-8.3-9.1-14-9.1h-19.1v36.5c0,5.9,1.4,9.8,4.5,9.8Z"/>
  </g>
  <g>
    <rect class="cls-1" x="259.4" y="140.3" width="441.9" height="111.3"/>
    <path d="M283.1,140.3v.6c-4.3,1-6.5,3.3-6.5,10.4v68.8c0,5.9,1.6,8.4,4.5,9.8h27.6c8.3,0,15-6.3,16.8-15.6h.8l-3.3,16.9h-61.9v-.6c3.9-.8,6.5-3.5,6.5-10.4v-68.8c0-6.9-2.6-9.6-6.5-10.4v-.6h22Z"/>
    <path d="M328.5,230.5c3.9-.8,6.5-3.5,6.5-10.4v-68.8c0-6.9-2.6-9.6-6.5-10.4v-.6h22v.6c-4.3,1-6.5,3.3-6.5,10.4v68.8c0,7.1,2.3,9.5,6.5,10.4v.6h-22v-.6Z"/>
    <path d="M386.7,194.5h-15.1v25.6c0,7.1,2.3,9.5,6.5,10.4v.6h-22v-.6c3.9-.8,6.5-3.5,6.5-10.4v-68.8c0-6.9-2.6-9.6-6.5-10.4v-.6h30.6c23.3,0,38.3,9.5,38.3,28s-7.3,23.5-29.1,25.6c9.9,1,20.5,4.3,23.4,14.1l4.6,16.3c1.4,4.3,4.5,6.3,10.9,6.9v.4c-9.6,0-18.3-.1-20.3-7.3l-4.8-16.3c-3.3-11.3-13.1-13.1-23-13.6ZM387.4,193.2c20.9,0,28.5-9.1,28.5-24s-10.6-27.6-29.1-27.6h-9.3c-5.8,0-5.9,1.8-5.9,9.8v41.9h15.8Z"/>
    <path d="M436.4,230.5c3.9-.8,6.5-3.5,6.5-10.4v-68.8c0-6.9-2.6-9.6-6.5-10.4v-.6h22v.6c-4.3,1-6.5,3.3-6.5,10.4v68.8c0,7.1,2.3,9.5,6.5,10.4v.6h-22v-.6Z"/>
    <path d="M508,139.1c26.6,0,44.5,18.1,44.5,46.6s-17.9,46.6-44.5,46.6-44.6-18.1-44.6-46.6,17.8-46.6,44.6-46.6ZM508,231.1c21.3,0,35.5-14.5,35.5-45.4s-14.3-45.4-35.5-45.4-35.5,14.5-35.5,45.4,14.1,45.4,35.5,45.4Z"/>
    <path d="M622.2,162.3l-5.5,3.9c-5.8-15.8-15.5-25.9-28.6-25.9s-17.8,6.4-17.8,16.5c0,26.6,52.4,23.3,52.4,52.7s-15,22.9-30,22.9-32-12.8-35.9-23.3l5.5-3.9c5.3,14.5,15.4,25.9,31.6,25.9s19.9-5,19.9-16.9c0-28.3-51.9-23-51.9-52.7s10.3-22.5,26.5-22.5,28.3,8.6,33.8,23.3Z"/>
  </g>
  <path d="M205,188.3c-6,5.8-15.5,9.9-22.8,9.9s-13.2-4.2-13.2-13.7,8.3-21.4,18.2-28.4c-2.3-6.7-3.8-13.1-3.8-17.8,0-7.3,3.4-14.2,12.1-14.2s11.1,3.6,11.1,10.4-6.7,13.8-12.6,18.1c3.8,10.9,9.5,22.8,16.1,30.9,6.8-6.9,10.9-19.8,10.9-28s.3-3.5,1.7-3.5,2,1,2,3.3c0,7-8.4,22.9-14,28.8,4.8,5.8,10.1,9.6,15.2,9.6s7.3-3.4,9.5-8.6c.4-1,.8-1.9,1.1-1.9s.1.3.1.4c0,.4-.1.8-.4,1.7-2.2,6.5-6.7,14.7-14,14.7s-11.5-4.6-17.2-11.6ZM187.6,156.7c-7.4,6.2-11.9,14.2-11.9,22.7s5.6,14.4,13,14.4,11.2-2.3,15.7-6.1c-6.8-8.5-12.9-20.3-16.8-31ZM201.4,134.5c0-5.6-1.7-9.5-6.5-9.5s-5.4,4.6-5.4,6.7c0,4.9,1.5,12.1,4.1,19.6,4.6-3.9,7.8-9.4,7.8-16.9Z"/>
</svg>