<?xml version="1.0" encoding="UTF-8"?>
<svg id="Layer_1" data-name="Layer 1" xmlns="http://www.w3.org/2000/svg" version="1.1" viewBox="0 0 605.9 490.4">
  <defs>
    <style>
      .cls-1, .cls-2 {
        fill: #000;
      }

      .cls-1, .cls-3 {
        stroke-width: 0px;
      }

      .cls-4, .cls-2 {
        isolation: isolate;
      }

      .cls-2 {
        font-family: Gealova, Gealova;
        font-size: 77.3px;
      }

      .cls-3 {
        fill: #f3c349;
      }
    </style>
  </defs>
  <g id="Layer_3" data-name="Layer 3">
    <g>
      <path class="cls-3" d="M272.9,322.3s0,0,0,0h0s0,0,0,0h0Z"/>
      <path class="cls-3" d="M308.2,287.7l1.9-3,1.9-5.5,2.5-11.8,1.4-6.1s1.1-2.9-.5.4-3.9,7.4-3.9,7.4l-1.4,4.5s1.3,1.7,1.1,2.6.8-1-1.1,1.7c-1.9,2.8-2.7,3-2.8,4.3s-.4,3.3-.4,3.3l-1.8,3.6,3-1.4"/>
      <path class="cls-3" d="M144.6,184.5l2.6-1.5,2.2-2.5,2.5-2.6,5.8-4.5.8-1,2.8-3.3,1.7-2.6-2.1-2.3-4.2,2.9-8.2,5.3s-2.7,1.9-3.6,2.8-2.4,3.7-2.4,3.7l.8,4.2,1.3,1.5h0Z"/>
      <path class="cls-3" d="M168.2,165.9l.5-2.2,5.2-4.6s3.8-3,8-3.9,8.4-1.7,8.4-1.7l6-1.9,10.8-3.3s5.4.4,4.8.8,13.5-7.3-7.4,4.5c-20.8,11.8-27.6,14.7-27.6,14.7,0,0-7.7,4.8-10.2,7s-5.1,5.6-5.1,5.6c0,0-1.6,1.9-2.9,2.6s-4.1,1.9-4.6,1.4-2-3.8-2-3.8c0,0,6.8-2.7,7.9-4.5s1.8-4.4,4-6.9,4.3-4.5,4.3-4.5l-.3.5h0Z"/>
      <path class="cls-3" d="M130,219.9l-1.8-.4-1.9-2.4.6-3.5,1.3-2.9,3.5-7.4s.8-3.3,1-3.6,2-2.9,2-2.9c0,0,1.8-3,2.8-4.1s2.8-2.8,2.8-2.8c0,0,.8-.3,2.9-1.9s6.6-4.8,6.6-4.8l-2.1,4.8s-1.2,1.4-3.3,4.1-2.8,3.8-2.8,3.8l-2.7,3.7-2.5,3.9s-3.8,6.2-4.4,9.1-.5,3-.8,4.3-1.5,2.9-1.5,2.9h0Z"/>
      <path class="cls-3" d="M133.7,219.3l-1.8,1.7s-.3.6-2,.6-3.2-.3-4.1,0-2.7,1.1-3.2,3.6-1.1,6.9-1.1,6.9v10.2c0,0,.2-4.3.3,5.4s1.6,14.9,1.6,14.9l1,5.3s2.7,2.9,3.5,3.9,1.2,3,1.2,3c0,0,1.2-3.4,1.2-3.6s-.2-10.1-.2-10.1c0,0-.9-5.1-1-7.6s-.4-3.9.2-6.4-.6.7,1.2-5.2,3.1-10.4,3.1-10.4l1.6-3.3,2.1-4.3,2.8-6.4s.8-2.9,1.7-5.2,2.2-6.3,2.2-6.3c0,0,.6-1.7,2.6-7.3s3.4-8,3.4-8c0,0,2.1-4.6,2.8-5.6s-2.8,2.1-2.8,2.1l-2.3,4.2-3.4,7.5s-2.5,4.8-3.4,7.1-2.5,7.4-2.5,7.4l-2.2,6.6-2.6-.7h0Z"/>
      <path class="cls-3" d="M129.6,278.1s-.8-1-.8,2.1,1.1,6.7,1.1,6.7l4.6,4.3,3,5.3s1.4,2.4,2.5,3.8,5,7.6,5,7.6l.6.9,3.2,3.3,4.7,4.4,3.5,2.9,7.7,7.3s5.4,2.9,5.9,3.6-1.8,1.6-1.8,1.6l1,2s2.6,1.7,4.6,2.8c2,1,2,.8,4.4,2.3,2.4,1.5,7.7,3.3,7.7,3.3,0,0,5.1-1.2,8-1.9s.7-3.7.7-3.7l-5.8-3.6-8-4.4s-10.2-4.5-11.1-5.5-1.8-2.6-2.9-3.7-4.3-3.6-4.3-3.6c0,0-3.4-4.9-4.5-6.4s-1.7-2.5-3.1-3.4-1.3.6-3.6-2.7-4.4-4.9-6.2-6.7-6-5.4-6-5.4l-5.2-7.1-4.9-6.1h0Z"/>
      <path class="cls-3" d="M159.8,198.5l-1.7,3.3-1.5,5.3-.6,6.7-.9,4.1v2s-1.5.4-1.5,4.5.2,8.9.2,8.9l-1.4,3.8-1.9,2.8,2,5.5,1.2,4s4.2,5,5.2,6.5,2.5,4.5,2.5,4.5c0,0,.3,2.9,2,5.6s4,7.7,4.5,9.2,2.1,2.5,0,2.2-6.3-5.4-6.3-5.4c0,0-2.4-6.9-3.4-7.8s-2.1-1.9-2.1-1.9c0,0,1.3,6.2,2.4,8.8s2,4,2.9,6.9,2.5,4,1,4.5.5,6.5-3.2,0-5-10.7-5-10.7c0,0-.8-2.6-1.9-3.5s-2.3-2.9-2.3-2.9c0,0,1.9-7.5,1.8-9.3s-1.3-5.8-1.3-5.8l-2.4-1.4-2.2-6.6.8-10.3s-.7-3.9.8-8.5,1-4.6,2.1-7.4,1.7-4.6,2.8-7.5,2.8-6.3,2.8-6.3c0,0,1.5-5.7,3.2-5.9s2.1,1.5,2.1,1.5l-.8.7h0Z"/>
      <path class="cls-3" d="M144.9,263.2s-.7-1.2-1.6.5-2.1,6.5-2.1,6.5c0,0-1.2.5,2.1,5.4s5.8,10.3,5.8,10.3c0,0,.4,1.3,1.9,4.4s2.2,4.8,5.4,8.5,3.9,4.2,6,6.5,4.5,4.5,6,6c1.5,1.5,3.1,2.6,3.1,2.6,0,0,2.6,1,3.1,1.5s1.9,2.1,1.9,2.1l-6.9-2.8s-.9-.3-3.6-3.2-7.1-6.5-9.6-9.2c-2.5-2.7-2.8-2.9-4.2-4.4-1.3-1.5-4.3-3.4-5.6-6.5-1.3-3.1-7.1-14.8-7.1-14.8,0,0-2.3-7.3-2.6-8.4s-3.5-17.6-1.6-2.1,5.3,21.8,5.3,21.8c0,0,.6,3.9,2.8,6.2s5.1,4.6,5.1,4.6c0,0,5.4,3.3,6,4.1s2.2,1.9,2.8,2.9,3.5,3.7,4.6,5.2,2.6,3,4.1,4.4,3.2,2.4,5,3.9c1.8,1.5,7.7,3.7,7.7,3.7,0,0,2.3.5,1-1.4s.4-1.6.4-1.6l2.6.6-.3-4.2-3.8-4.4s-4.7-4.3-7.3-6.7c-2.7-2.5-4.7-3.4-6.7-7.3-2.1-3.9-3.1-5.2-3.1-5.2l-8.6-11.2-2.9-6.7s-1.3-3.6-2.1-5.8-2.9-5.6-2.9-5.6h0Z"/>
      <path class="cls-3" d="M158.3,187.3l-2.2,1.3s-1.2.4-2,3.2-1.4,5.7-1.4,5.7l-2.8,3.3-2.9,7.4-1.5,1.7-5.4,8.7s-.9,4.1-1.2,5.8-1.9,5.3-1.9,5.3l2.3,11.3-.4,4.1,1.2,4.8.5,4s-.6,4.4-.2,5.3,2.1,2.1,2.1,2.1l2.9-3.4.5-5.2-1.5-7.1s-.4-4.6,0-7.4,0-9.2,0-9.2c0,0-.5-5-.3-6.4s0-.1,1-3.8,3.5-9.1,4-9.9,2.4-4.5,3.1-5.9,1.3-2.4,2.2-4.4,3.1-6.3,3.4-6.6.5-4.6.5-4.6h0Z"/>
      <path class="cls-3" d="M134.8,230.6l.4,4.8s-.8,3.8-1,5.7-.8,5.4-.8,5.4l-1.4,4.2s3.7.5,4,1.2.6,5.2.6,5.2l1.6,5.1s2.7,0,2.3-1-.8-3-1.1-4.3-.7-2.6-1.1-4.4-.8-3.6-1-4.2-.9.6-.9-1.8.6-5.9.9-6.6,0-.6,0-2.1-.7-3.2-.7-3.2l-1.6-4.3h0Z"/>
      <path class="cls-3" d="M179.4,290.3l-2.7-1.3-4.8-4.5-2.3-2.7-1.9-1.9-2.2-1.4s-1.2-.4-.8.7,0,2.2,1.6,4.5,2.2,2.8,3.3,3.8,3.2,2.8,3.2,2.8l-.4,3.5-.8,1.8-3.6-.7-3.1-3.8-2.6-2.8-2.4-2.8s-5.1-5.5-5.6-6.6-2.1-5.8-2.1-5.8l1.3,5.5s.8,3.3,1.7,4.2,1.3,1.1,2.8,3.3,2.4,3.5,3.9,5.6,1.3,4,3.6,6.2,4.7,4.2,5.7,5.4,4,4.2,5.1,5.1,1.4.3,3,2.3c1.6,2,2.9,3,5.6,5.1s1.1,3,6.1,3.6,6.6.2,9.7,1,12.6,4.3,4.4-.3-11.7-6.9-11.7-6.9c0,0-2,.3-4.9-1.4-2.9-1.7-5.8-2.5-6.8-4s-2.7-1.6-2.3-3.5.8-5.3.8-5.3c0,0-1.1-3,.9-1.8s4.4,3.2,4.4,3.2l1.4,3.5,3.2,1.8,7.8,5.5s3,0,4.1.8,3,1.9,5.7,2.6c2.7.7-1.6,1.2,8.2,1.1s13.1-.4,14.2-.4,3.2-1.7,3.2-1.7c0,0,0-2.2-1.8-2.2s-12.2.7-12.2.7l-11.7-1.9s-3-.9-4.9-2.9c-1.9-2-4.6-3.5-6.2-5s-4.6-4-4.6-4l-7.6-4.3-4.7-3.7h0Z"/>
      <path class="cls-3" d="M193.3,331.8l-4.7-.9-2.6-2.2-2.9-1.8-3.5-.6-2.3-1.8s.2-.2,5.3,0,6.9.3,8.4,1.4,3.4,1.4,4.2,2.6.7,2.4.7,2.4l-2.6,1h0Z"/>
      <path class="cls-3" d="M207.8,324.5s-.9-1.5-2-.8-1.5,1.5-1.5,1.5l6.9,1.3,2-.5h12.5c0,0,1.8-1.3,4.3-1.9,2.5-.6,4.8-.7,4.8-.7,0,0,2.4-.8,4.7-1.7,2.4-1,4.7-1.4,7.3-1.9,2.6-.5,14.1-2.3,14.1-2.3l7.5-4.5,4.6-3.4,1.4-2.2-11,2.7s-6.1,4-7.1,4.5-6.6,1.3-6.6,1.3c0,0-26.9,6.3-27.7,6.5s-4,.5-4,.5l-10.3,1.6h0Z"/>
      <path class="cls-3" d="M198.7,331.8c-.7.6-2.4,1.3-2.4,1.3l2.9,2.8,13.2,1.7s1.1,3,4.3,3.1,10.1-3.5,12.3-3.6c2.3,0,1.7,2.1,6.6.6s8.7-2.4,11.6-3.2c2.9-.9,4.6-.4,6.8-1.6s4.8-2.1,7.8-3.5,5.4-2.9,5.4-2.9l1.2-2s6.4-5-5.5,1-22.2,5.9-23.5,6.4-7.6,1.8-7.6,1.8l-7.7,1.2s-4.7.3-9.6-.3-7.4-.7-8-.7-7.8-2.1-7.8-2.1h0Z"/>
      <path class="cls-3" d="M201.7,338.3s-.9-1-1.8.4-2.5,4.2,0,4.6.9,0,4.4,1c3.4,1,.8,1.1,5.2,1.5,4.5.4,5.7.7,8.4.8,2.7,0,3.3.9,7.5-.4s3.6-1.4,7.6-1.7c4-.3,5.2-.7,7.2-.4s6.4,0,9.9-.9c3.5-1,4.9-1.4,6.2-2.1,1.2-.7.2-.6,3.3-1.8s6.4-2.4,6.4-2.4c0,0,8.1-3,10-4.5s3.2-2.7,5.3-3.3,3.2-1.2,5.9-2.7,5.8-3.9,7.3-5.5,3.8-3.6,4.9-5,3.4-4.6,3.4-4.6c0,0,.8-2.9-5.3,1.8-6.1,4.7-9.6,8.7-9.6,8.7l-11.1,6.3s-4.8.7-6.5,1.9-7.3,4.3-7.3,4.3c0,0-1.1,0-5.2,1.5s-8,2.5-8,2.5c0,0-6.3,1.3-8.2,1.3s-9.8.6-12.4,1.5c-2.7,1-6,1.3-8.2,1.8s-5.3.7-6.7.3-7.6-1.8-7.6-1.8l-4.5-1-.3-2.1h0Z"/>
      <path class="cls-3" d="M162.4,236.2c-.3-.5-1.8-3.9-2.2-3.6s-4.5,4.7-4.5,4.7c0,0,1.8,3,2.1,4.5s1.8,4.8,1.8,4.8c0,0,1,4.6,1.5,5.7s2.5,4.3,2.8,3.2.4-3,.4-3l-1.1,6.1,5.7,7.1,3.1,9s1.7,3.5,2.8,5.6,2.5,4.3,2.5,4.3c0,0,2.9,3.1,5.2,4.7s3.2.7,5.9,4.1,5.8,5.2,7.3,6.6,0,1.3,4.3,3.5,8.1,3.9,8.1,3.9l10.1,2.3h4.6c0,0,4.2-1.8,1-2.8s-4.2-.6-7-1.8c-2.9-1.2-6.3-3.4-6.3-3.4,0,0-1.6-1.4-5.7-3.9s-14.4-8.6-14.4-8.6c0,0-9.2-10.1-10.8-12.8s-4-6.2-4-6.2c0,0-2.2-4.2-2.8-5.8s-3-5-3-5l-2.1-3.3-1.3-5.1s-.8-5.3-.7-7-1-4.5-1-4.5l-2.4-3.2h0Z"/>
      <path class="cls-3" d="M164.1,202.7l.7-2.6s1-4.6,2.5-7.2,2.5-4,4.3-6.4,5.3-6.3,5.3-6.3c0,0,6.6-6.1,8.4-7.9s3.5-2.9,6.7-5.5,6.2-4.6,6.2-4.6c0,0,4.3-1.8,7.8-3.9s8.4-4.1,8.4-4.1l6.9-2.1,21-5.1,1.3-3.1-7.3-.8-8.9,3.9-10.1.5-16,10.3s-8.2,5.3-11.3,7.3-10,4.2-10,4.2l-17.5,16.8-1.8,4.4-.3,10.3-1.4,6.9s-.6,3.3-1.1,5.8-1.5,6.3-1.5,7,2.5,1.4,2.5,1.4l3.6-2.9v4l-.4,1.5.4,5.2,6.5-3-.6-5.4-.8-6.3s-.6-6.1-.4-7.3,0-3.1,0-4.2-2.9-1-2.9-1h0Z"/>
      <path class="cls-3" d="M174.6,192.8s-.5-1.5.9-3.8,6.3-8.9,6.3-8.9c0,0,5.6-5.6,8.1-7.9s4.4-3.5,6.6-5.1,6.7-4.2,6.7-4.2c0,0,7.2-4.8,10.1-6.4s3.4-1.8,5.9-2.7,3.3-.9,5.7-1.6,12.8-2,13.9-2.1,1,0,7.6.3,12.8.9,15.5,1.4,5.5,1.9,5.5,1.9l-4.2.3h-15.6c0,0-25.4.2-25.4.2l-7,7.6s-1.4,1.8-3.8,5-5,4.8-6.6,7.6-3.1,4.6-4.3,6.4-4.8,6.2-4.8,6.2l-7.7,4.8s-8.6.7-9.8,1-3.6,0-3.6,0h0Z"/>
      <polygon class="cls-3" points="174.2 209.3 175.2 213.3 179.5 212.8 183.1 205.5 187.9 195.7 186.2 195.4 181.4 197.1 178.3 201.7 174.2 209.3"/>
      <path class="cls-3" d="M176.9,216.6c-.3,0-2,1.9-2.8,4.8s-4.8,6.8-4.3,9,.3,2.8,0,6.4-.8,4.2.7,6.7,2.1,4,3,5.1,2.8,2.4,3.3,2.5.7-6,.7-6c0,0-.9-4.9-.7-9.2s1.2-7.4,1.2-9.2-1.2-10.1-1.2-10.1h0Z"/>
      <path class="cls-3" d="M172,254.7l1.8,8.5,2.5,3.6s1.6,2.9,3.3,5.1.6,2.2,4.6,6.5c4,4.3,6,6.2,7.1,8s4.6,4.6,4.6,4.6l5.2,2.1,10.3,6.7,4.6,2.9,12.9,1.9s-.2.9-4.2-1-5.8-4.4-8.8-6-9.1-3.3-11.4-6.1-9.5-7.8-10.6-9.3-1.3-1.6-3.5-4.7c-2.2-3.1-5.9-8-5.9-8l-12.5-14.9Z"/>
      <path class="cls-3" d="M179.5,252s-.8,2.4-.8,2.7.2.7,1,3c.8,2.4,1.7,4.6,3.1,6.4s2.5,2.4,4.6,5.3c2.1,2.9,3.3,3.9,4.8,6.2,1.5,2.3,1.8,2.9,3.5,4.7,1.7,1.8,4.9,5.1,6.3,6.2s1.2,1,4.4,3.1c3.1,2.1,3.4,2.2,5.4,3.3,2,1.1.3,1.3,4.3,2.9s5.1,1.8,7.1,3.5c2.1,1.7,6.2,1,5.2.6s-6.8-3.7-6.8-3.7c0,0,2.9,3.2-3.1-2.2s-16.1-13-16.7-13.6-3.6-2.9-3.6-2.9l-3.3-4.4s-2.1-2.9-3.2-4.3-2.3-2.2-3.6-3.8-3.5-3.7-3.5-3.7l-1-2-3.9-7.3h0Z"/>
      <path class="cls-3" d="M235.5,309.7l10.1-1.9,11.8-4.1,7.9-6,4.4-2.1,3.4-2.6-11,2-7.7,2.7s-7.5,2.8-8.8,2.6.8-3.4-6,0-13.3,2.5-13.3,2.5c0,0,3.2,4.9,3.9,5.4s4.4,1.5,4.4,1.5h1.1,0Z"/>
      <path class="cls-3" d="M272.2,303.5l-2.1,1.3-9.8,6.1-6.1,2.4-3.6.5-7.1,2s-7.4.9-8.2,1.2-.8-2.2-.8-2.2c0,0,3.3-3.2,4.5-3s4.1,1.6,5,1.6,4-1.4,6-2.4.8.3,5.6-1.2c4.8-1.5,7.4-2.9,7.4-2.9,0,0-.9,1,.8-.5s4.5-2.8,4.5-2.8h4,0Z"/>
      <path class="cls-3" d="M214.1,328.6c-.3.3-1.8.9-1.8.9l1.8,2.1,4.7.2,8.7-3.7s2.8,3.1,5.8,2.5,12.7-3.1,12.7-3.1c0,0-.9.7,1.2,0s6.4-2.3,7.8-2.5,6.6-1.6,6.6-1.6l7.3-3.1,6.7-3.2s2.9-1.5,5.3-3.4c2.5-1.9,7.7-5.1,7.7-5.1l7.4-7.3,2.9-6.8s-2.3,1.5-5.7,3.7c-3.4,2.2-7.7,5.5-7.7,5.5,0,0-1.9,2.1-6.9,5.5s-10.6,6.4-10.6,6.4c0,0-1.9.7-3.3,1.7s-4.2,2.6-5.6,3-4.9,1.1-6.4,1.7-5.4,1-5.4,1l-6.6,1.6-6.2.9-10.6,1.8-9.8,1.5h0Z"/>
      <path class="cls-3" d="M206.1,330.7l-2.5-.7-3.1-1.9-5.4-1.6-7.1-4.8h-4.7l2.2-2.2,4.6.9s3,.8,3.9,1.6,3.2,1.5,4,1.9,1.7,1.2,1.7,1.2l4.1,1.4,3.1,1,2.1,1.1.8,1.2-3.4.9h0Z"/>
      <path class="cls-3" d="M272.8,328.1v-3.1c0,0,3.5-2.9,5.9-4.7s2.9-1.5,5.3-4.3,2.9-2.5,5.9-5.7,5.4-5.5,5.4-5.5c0,0,3.1-2.3,4.8-4.6s5.7-6.3,5.7-6.3c0,0,2-1.4,3.8-3.7,1.8-2.3,2.8-5.1,3.8-4.9s1.3,3.2,1.3,3.2c0,0,0,1.6-1.1,3.7s0,1-3.1,5.5-7.2,9.6-7.2,9.6l-4.4,3s-3.2.5-5.5,2.6c-2.3,2.1-2.7,2.1-5.2,4s-6.9,5.3-6.9,5.3c0,0-2,.7-3.1,1.7s-5.3,4.1-5.3,4.1h0Z"/>
      <path class="cls-3" d="M274.9,304.9l5.2-6.6s4.1-5,5.6-6.5,4.8-2.6,4.8-2.6c0,0,3.3-1.3,4.9-3.6,1.6-2.3,2.9-3.9,4.6-5.2s4.3-2.9,4.3-2.9l.2,3.8s.7-1.6-2.8,2.9c-3.4,4.5-3.6,5.5-6,7.9s-7.8,6.2-7.8,6.2l-6.3,4.3-6.8,2.5h0Z"/>
      <path class="cls-3" d="M319.3,269.3l-4.5,5.5.6,1.9-.6,4.4,3.3-.2s.5-1.6.9-3.6.9-4.3.9-4.3l-.5-3.7h0Z"/>
      <path class="cls-3" d="M318,250.8c-.7.3-3.2,3.2-3.2,3.2l-1.2,4-2.2,3.8s-4.1,3.2-4.7,3.2-4.2,3.2-4.2,3.2l-1.7,2.9,3,1.3s2.1-1,3.4-2.8,1.7-2.8,2.8-4,2.3-2.2,3.1-3.8.9-2,2.4-3.8c1.4-1.8,3-3.4,3-3.4l-.4-3.9h0Z"/>
      <path class="cls-3" d="M276.3,291.1l5.6-4.4,4.7-2.7.9-4.7s2.7-2.4,3.2-2.4,1.1,2.8,1.1,2.8l-2.5,2.6-2.4,3.1-3.4,3.1-5.1,3-2.2-.5h0Z"/>
      <path class="cls-3" d="M271.8,296.9c-.9.2,3.2-3-2.8.8-6,3.8-8.7,5.8-8.7,5.8l-4.1,2.3-1.8,1s0,2,2.9.6,4.4-2,4.4-2c0,0,5.2-4.2,6.3-4.1s-.3,1.2,3-.5c3.3-1.7,7.4-4.4,7.4-4.4,0,0,3-3.2,5.5-4.5,2.5-1.3,8-5.3,8-5.3,0,0,4.6-4.3,5.7-5.6s2.1-3.7,2.1-3.7l-1.7-1.2-4,6.3s-4.3,2.7-4.8,3.6-4.3,3.6-5,4.1-4.3,2.9-4.3,2.9l-3.6,2.1-4.5,1.8h0Z"/>
    </g>
  </g>
  <g id="Layer_2" data-name="Layer 2">
    <g class="cls-4">
      <text class="cls-2" transform="translate(247.4 215.7)"><tspan x="0" y="0">n</tspan></text>
      <text class="cls-2" transform="translate(285.9 215.7)"><tspan x="0" y="0">o</tspan></text>
      <text class="cls-2" transform="translate(328.7 215.7)"><tspan x="0" y="0">c</tspan></text>
      <text class="cls-2" transform="translate(367.7 215.7)"><tspan x="0" y="0">h</tspan></text>
      <text class="cls-2" transform="translate(405.9 215.7)"><tspan x="0" y="0">e</tspan></text>
    </g>
    <g class="cls-4">
      <text class="cls-2" transform="translate(332.4 292)"><tspan x="0" y="0">lir</tspan></text>
      <text class="cls-2" transform="translate(390.7 292)"><tspan x="0" y="0">i</tspan></text>
      <text class="cls-2" transform="translate(405 292)"><tspan x="0" y="0">os</tspan></text>
    </g>
    <path class="cls-1" d="M283.7,260.3c-3.6,3.5-9.3,5.9-13.7,5.9s-7.9-2.5-7.9-8.2,5-12.8,10.9-17.1c-1.4-4-2.3-7.9-2.3-10.7,0-4.4,2-8.6,7.3-8.6s6.7,2.1,6.7,6.2-4,8.3-7.6,10.9c2.3,6.5,5.7,13.7,9.7,18.6,4.1-4.2,6.5-11.9,6.5-16.8s.2-2.1,1-2.1,1.2.6,1.2,2c0,4.2-5.1,13.8-8.4,17.3,2.9,3.5,6.1,5.8,9.2,5.8s4.4-2,5.7-5.2c.2-.6.5-1.2.7-1.2s0,.2,0,.2c0,.2,0,.5-.2,1-1.3,3.9-4,8.9-8.4,8.9s-6.9-2.8-10.3-7h0ZM273.2,241.3c-4.5,3.7-7.1,8.6-7.1,13.6s3.4,8.7,7.8,8.7,6.7-1.4,9.4-3.7c-4.1-5.1-7.8-12.2-10.1-18.6h0ZM281.5,228c0-3.4-1-5.7-3.9-5.7s-3.2,2.8-3.2,4c0,2.9.9,7.3,2.4,11.8,2.8-2.3,4.7-5.6,4.7-10.1h0Z"/>
  </g>
</svg>