<?xml version="1.0" encoding="UTF-8"?>
<svg xmlns="http://www.w3.org/2000/svg" viewBox="0 0 639.73 639.73">
  <defs>
    <style>
      .cls-1, .cls-2 {
        fill: #000;
      }

      .cls-1, .cls-3 {
        stroke-width: 0px;
      }

      .cls-2 {
        font-family: Gealova, Gealova;
        font-size: 77.32px;
      }

      .cls-4 {
        letter-spacing: -.01em;
      }

      .cls-5 {
        letter-spacing: 0em;
      }

      .cls-6 {
        letter-spacing: -.01em;
      }

      .cls-3 {
        fill: #f3c349;
      }
    </style>
  </defs>
  <g id="Layer_3" data-name="Layer 3">
    <g>
      <path class="cls-3" d="M236.56,381.65s-.01.03-.05.05v-.03s.03-.03.05-.03Z"/>
      <path class="cls-3" d="M271.89,347.03l1.9-3.04,1.9-5.5,2.47-11.76,1.42-6.07s1.1-2.85-.5.38-3.87,7.4-3.87,7.4l-1.42,4.55s1.33,1.71,1.14,2.56.76-1.04-1.14,1.71-2.66,3.04-2.75,4.27-.38,3.28-.38,3.28l-1.8,3.64,3.04-1.42"/>
      <path class="cls-3" d="M108.28,243.81l2.61-1.52,2.23-2.51,2.47-2.61,5.79-4.46.81-1,2.75-3.32,1.71-2.61-2.13-2.32-4.22,2.85-8.16,5.27s-2.66,1.85-3.56,2.8-2.37,3.7-2.37,3.7l.81,4.22,1.28,1.52Z"/>
      <path class="cls-3" d="M131.86,225.26l.52-2.18,5.17-4.55s3.8-2.99,8.02-3.89,8.4-1.66,8.4-1.66l6.02-1.85,10.77-3.27s5.41.43,4.79.81,13.47-7.31-7.35,4.46c-20.83,11.76-27.56,14.66-27.56,14.66,0,0-7.68,4.79-10.15,7.02s-5.08,5.65-5.08,5.65c0,0-1.61,1.9-2.94,2.56s-4.08,1.9-4.55,1.38-1.99-3.8-1.99-3.8c0,0,6.83-2.66,7.92-4.46s1.76-4.41,4.03-6.88,4.32-4.51,4.32-4.51l-.33.52Z"/>
      <path class="cls-3" d="M93.62,279.29l-1.8-.38-1.9-2.37.57-3.51,1.33-2.85,3.51-7.4s.76-3.32,1.04-3.61,1.99-2.85,1.99-2.85c0,0,1.8-3.04,2.85-4.08s2.85-2.75,2.85-2.75c0,0,.85-.28,2.94-1.9s6.64-4.84,6.64-4.84l-2.09,4.84s-1.23,1.42-3.32,4.08-2.85,3.8-2.85,3.8l-2.66,3.7-2.47,3.89s-3.8,6.17-4.36,9.11-.47,3.04-.76,4.27-1.52,2.85-1.52,2.85Z"/>
      <path class="cls-3" d="M97.32,278.62l-1.8,1.71s-.28.57-1.99.57-3.23-.28-4.08,0-2.66,1.14-3.23,3.61-1.14,6.93-1.14,6.93l-.09,10.25s.28-4.27.38,5.41,1.61,14.9,1.61,14.9l1.04,5.31s2.66,2.94,3.51,3.89,1.23,2.99,1.23,2.99c0,0,1.23-3.37,1.23-3.65s-.19-10.06-.19-10.06c0,0-.95-5.12-1.04-7.59s-.38-3.89.19-6.36-.57.66,1.23-5.22,3.13-10.44,3.13-10.44l1.61-3.32,2.09-4.27,2.75-6.45s.76-2.85,1.71-5.22,2.18-6.26,2.18-6.26c0,0,.57-1.71,2.56-7.31s3.42-7.97,3.42-7.97c0,0,2.13-4.59,2.78-5.57s-2.78,2.06-2.78,2.06l-2.28,4.17-3.42,7.5s-2.47,4.84-3.42,7.12-2.47,7.4-2.47,7.4l-2.18,6.55-2.56-.66Z"/>
      <path class="cls-3" d="M93.24,337.45s-.76-1.04-.76,2.09,1.14,6.74,1.14,6.74l4.55,4.27,3.04,5.31s1.42,2.43,2.47,3.78,5.03,7.61,5.03,7.61l.57.85,3.23,3.32,4.74,4.36,3.51,2.94,7.68,7.31s5.41,2.94,5.88,3.61-1.8,1.61-1.8,1.61l1.04,1.99s2.56,1.71,4.55,2.75c1.99,1.04,1.99.76,4.36,2.28,2.37,1.52,7.68,3.32,7.68,3.32,0,0,5.12-1.23,7.97-1.9,2.85-.66.66-3.7.66-3.7l-5.79-3.61-7.97-4.36s-10.15-4.46-11.1-5.5-1.8-2.56-2.94-3.7-4.27-3.61-4.27-3.61c0,0-3.42-4.93-4.46-6.36s-1.71-2.47-3.13-3.42-1.33.57-3.61-2.66-4.36-4.93-6.17-6.74-5.98-5.41-5.98-5.41l-5.22-7.12-4.93-6.07Z"/>
      <path class="cls-3" d="M123.51,257.85l-1.71,3.32-1.52,5.31-.57,6.74-.95,4.05v2.02s-1.52.38-1.52,4.46.19,8.92.19,8.92l-1.42,3.8-1.9,2.75,1.99,5.5,1.23,3.98s4.17,5.03,5.22,6.45,2.47,4.46,2.47,4.46c0,0,.28,2.85,1.99,5.6s3.98,7.68,4.46,9.2,2.09,2.47,0,2.18-6.26-5.41-6.26-5.41c0,0-2.37-6.93-3.42-7.78s-2.09-1.9-2.09-1.9c0,0,1.33,6.17,2.37,8.82s1.99,3.98,2.94,6.93,2.51,3.98,1.02,4.55.5,6.45-3.25,0-4.98-10.72-4.98-10.72c0,0-.76-2.56-1.9-3.51s-2.28-2.85-2.28-2.85c0,0,1.9-7.5,1.8-9.3s-1.33-5.79-1.33-5.79l-2.37-1.42-2.18-6.64.76-10.34s-.66-3.89.85-8.54,1.04-4.65,2.09-7.4,1.71-4.65,2.85-7.5,2.85-6.26,2.85-6.26c0,0,1.52-5.69,3.23-5.88s2.09,1.52,2.09,1.52l-.76.66Z"/>
      <path class="cls-3" d="M108.52,322.55s-.66-1.23-1.61.47-2.09,6.55-2.09,6.55c0,0-1.23.5,2.09,5.37s5.79,10.28,5.79,10.28c0,0,.38,1.33,1.9,4.36s2.18,4.84,5.41,8.54c3.23,3.7,3.93,4.17,6.04,6.45s4.49,4.46,6,5.98c1.52,1.52,3.13,2.56,3.13,2.56,0,0,2.56.95,3.13,1.52s1.9,2.09,1.9,2.09l-6.93-2.75s-.95-.28-3.61-3.23-7.12-6.55-9.58-9.2c-2.47-2.66-2.85-2.85-4.17-4.36-1.33-1.52-4.27-3.42-5.6-6.55-1.33-3.13-7.12-14.8-7.12-14.8,0,0-2.28-7.31-2.56-8.44s-3.51-17.65-1.61-2.09,5.31,21.82,5.31,21.82c0,0,.57,3.89,2.75,6.17,2.18,2.28,5.12,4.65,5.12,4.65,0,0,5.41,3.32,5.98,4.08s2.18,1.9,2.85,2.94,3.51,3.7,4.55,5.22,2.56,3.04,4.08,4.36,3.23,2.37,5.03,3.89,7.68,3.7,7.68,3.7c0,0,2.28.47.95-1.42s.42-1.61.42-1.61l2.62.57-.28-4.17-3.8-4.36s-4.65-4.27-7.31-6.74c-2.66-2.47-4.65-3.42-6.74-7.31-2.09-3.89-3.13-5.22-3.13-5.22l-8.62-11.2-2.95-6.74s-1.33-3.61-2.09-5.79-2.94-5.6-2.94-5.6Z"/>
      <path class="cls-3" d="M121.99,246.65l-2.18,1.33s-1.23.38-1.99,3.23-1.4,5.69-1.4,5.69l-2.78,3.32-2.94,7.4-1.52,1.71-5.41,8.71s-.95,4.1-1.23,5.81-1.9,5.31-1.9,5.31l2.28,11.29-.38,4.05,1.23,4.78.47,3.98s-.57,4.36-.19,5.31,2.13,2.09,2.13,2.09l2.89-3.42.47-5.22-1.52-7.12s-.38-4.65-.09-7.4.09-9.2.09-9.2c0,0-.47-5.03-.28-6.45s-.09-.13,1.04-3.81,3.51-9.09,3.98-9.85,2.37-4.46,3.13-5.88,1.33-2.37,2.18-4.36,3.13-6.26,3.42-6.64.47-4.65.47-4.65Z"/>
      <path class="cls-3" d="M98.44,289.91l.4,4.84s-.76,3.8-1.04,5.69-.76,5.41-.76,5.41l-1.42,4.17s3.7.47,3.98,1.23.57,5.22.57,5.22l1.61,5.12s2.66-.09,2.28-.95-.76-3.04-1.14-4.27-.66-2.56-1.14-4.36-.75-3.61-1.04-4.17-.95.57-.95-1.8.58-5.88.95-6.55,0-.57,0-2.09-.67-3.23-.67-3.23l-1.64-4.27Z"/>
      <path class="cls-3" d="M143.05,349.63l-2.66-1.27-4.84-4.46-2.28-2.66-1.9-1.9-2.18-1.42s-1.23-.38-.85.66.09,2.18,1.61,4.46,2.18,2.75,3.32,3.8,3.23,2.79,3.23,2.79l-.38,3.47-.76,1.8-3.61-.66-3.13-3.82-2.59-2.83-2.44-2.79s-5.12-5.46-5.6-6.6-2.09-5.79-2.09-5.79l1.33,5.5s.76,3.32,1.71,4.17,1.33,1.14,2.75,3.32,2.37,3.51,3.89,5.6,1.33,3.98,3.61,6.17,4.65,4.17,5.69,5.41,3.98,4.17,5.12,5.12,1.42.28,3.04,2.28,2.85,3.04,5.6,5.12,1.14,3.04,6.07,3.61c4.93.57,6.55.19,9.68.95,3.13.76,12.62,4.27,4.36-.28-8.25-4.55-11.67-6.93-11.67-6.93,0,0-1.99.28-4.93-1.42-2.94-1.71-5.79-2.47-6.83-3.98s-2.66-1.61-2.28-3.51.76-5.31.76-5.31c0,0-1.14-3.04.85-1.8s4.36,3.21,4.36,3.21l1.42,3.53,3.23,1.8,7.78,5.5s3.04,0,4.08.76,3.04,1.9,5.69,2.56c2.66.66-1.61,1.23,8.16,1.14,9.77-.09,13.09-.38,14.23-.38s3.23-1.71,3.23-1.71c0,0,0-2.18-1.8-2.18s-12.24.66-12.24.66l-11.67-1.89s-3.04-.87-4.93-2.86c-1.9-1.99-4.55-3.51-6.17-5.03s-4.65-3.98-4.65-3.98l-7.61-4.27-4.73-3.66Z"/>
      <path class="cls-3" d="M157,391.15l-4.74-.85-2.56-2.18-2.94-1.8-3.51-.57-2.28-1.8s.19-.19,5.31-.09c5.12.09,6.93.28,8.44,1.42s3.42,1.42,4.17,2.56.7,2.37.7,2.37l-2.6.95Z"/>
      <path class="cls-3" d="M171.42,383.82s-.85-1.49-1.99-.83-1.52,1.52-1.52,1.52l6.93,1.33,1.99-.47,12.52.09s1.8-1.42,4.27-1.99c2.47-.57,4.84-.66,4.84-.66,0,0,2.37-.76,4.74-1.71,2.37-.95,4.74-1.42,7.31-1.9,2.56-.47,14.14-2.28,14.14-2.28l7.5-4.55,4.65-3.42,1.42-2.18-11.01,2.66s-6.07,3.98-7.12,4.46-6.64,1.33-6.64,1.33c0,0-26.85,6.26-27.7,6.45s-3.98.53-3.98.53l-10.34,1.63Z"/>
      <path class="cls-3" d="M162.41,391.15c-.66.57-2.37,1.33-2.37,1.33l2.85,2.75,13.19,1.71s1.14,3.04,4.27,3.13c3.13.09,10.06-3.51,12.33-3.61s1.71,2.09,6.55.57c4.84-1.52,8.73-2.37,11.57-3.23,2.85-.85,4.55-.38,6.83-1.61s4.84-2.09,7.78-3.51c2.94-1.42,5.41-2.85,5.41-2.85l1.23-2.02s6.45-5-5.5.98c-11.95,5.98-22.2,5.88-23.48,6.36s-7.64,1.8-7.64,1.8l-7.68,1.23s-4.74.28-9.58-.28-7.4-.66-7.97-.66-7.78-2.09-7.78-2.09Z"/>
      <path class="cls-3" d="M165.35,397.6s-.85-1.04-1.8.38-2.47,4.17,0,4.65.95-.09,4.36.95c3.42,1.04.76,1.14,5.22,1.52,4.46.38,5.69.66,8.35.76,2.66.09,3.32.85,7.5-.38,4.17-1.23,3.61-1.42,7.59-1.71,3.98-.28,5.22-.66,7.21-.38s6.36.09,9.87-.85c3.51-.95,4.93-1.42,6.17-2.09,1.23-.66.19-.57,3.32-1.8s6.36-2.37,6.36-2.37c0,0,8.06-3.04,9.96-4.46s3.23-2.66,5.31-3.32,3.23-1.23,5.88-2.66,5.79-3.89,7.31-5.5,3.8-3.61,4.93-5.03,3.42-4.65,3.42-4.65c0,0,.76-2.94-5.31,1.8s-9.58,8.73-9.58,8.73l-11.1,6.3s-4.78.72-6.52,1.86-7.34,4.27-7.34,4.27c0,0-1.14,0-5.22,1.52-4.08,1.52-7.97,2.47-7.97,2.47,0,0-6.26,1.32-8.25,1.32s-9.77.57-12.43,1.52c-2.66.95-5.98,1.33-8.16,1.8s-5.31.66-6.74.28-7.59-1.8-7.59-1.8l-4.46-1.04-.28-2.09Z"/>
      <path class="cls-3" d="M126.04,295.51c-.35-.47-1.78-3.91-2.25-3.57s-4.46,4.71-4.46,4.71c0,0,1.8,3.04,2.09,4.46s1.8,4.84,1.8,4.84c0,0,1.04,4.55,1.52,5.69s2.47,4.27,2.85,3.23.38-3.04.38-3.04l-1.14,6.07,5.69,7.12,3.13,9.01s1.71,3.51,2.85,5.6,2.47,4.27,2.47,4.27c0,0,2.85,3.13,5.22,4.74s3.23.66,5.88,4.08,5.79,5.22,7.31,6.64c1.52,1.42-.09,1.33,4.27,3.51,4.36,2.18,8.06,3.89,8.06,3.89l10.15,2.28,4.65-.09s4.17-1.71,1.04-2.75-4.17-.57-7.02-1.8c-2.85-1.23-6.26-3.42-6.26-3.42,0,0-1.61-1.41-5.69-3.93-4.08-2.52-14.42-8.59-14.42-8.59,0,0-9.2-10.15-10.82-12.81s-3.98-6.17-3.98-6.17c0,0-2.18-4.17-2.75-5.79s-3.04-5.03-3.04-5.03l-2.09-3.32-1.33-5.12s-.76-5.31-.66-7.02-1.04-4.46-1.04-4.46l-2.4-3.23Z"/>
      <path class="cls-3" d="M127.78,262.02l.66-2.56s1.04-4.55,2.47-7.21,2.47-3.98,4.27-6.36,5.31-6.26,5.31-6.26c0,0,6.55-6.07,8.35-7.87s3.51-2.94,6.74-5.5,6.17-4.55,6.17-4.55c0,0,4.27-1.8,7.78-3.89s8.44-4.08,8.44-4.08l6.93-2.09,20.97-5.11,1.33-3.15-7.31-.76-8.92,3.89-10.15.47-16.03,10.34s-8.25,5.31-11.29,7.31-9.96,4.17-9.96,4.17l-17.48,16.79-1.78,4.36-.28,10.34-1.42,6.93s-.57,3.32-1.14,5.79-1.52,6.26-1.52,7.02,2.5,1.42,2.5,1.42l3.64-2.94v3.98l-.45,1.52.45,5.21,6.48-3.03-.57-5.41-.76-6.26s-.57-6.13-.38-7.28,0-3.06-.09-4.2-2.94-1.04-2.94-1.04Z"/>
      <path class="cls-3" d="M138.31,252.15s-.47-1.52.95-3.8,6.26-8.92,6.26-8.92c0,0,5.6-5.6,8.06-7.87s4.36-3.51,6.55-5.12,6.74-4.17,6.74-4.17c0,0,7.21-4.84,10.15-6.45s3.42-1.8,5.88-2.66,3.32-.95,5.69-1.61,12.81-1.99,13.95-2.09,1.04-.09,7.59.28,12.81.95,15.46,1.42,5.5,1.9,5.5,1.9l-4.17.28-15.56.09-25.43.09-7.02,7.59s-1.42,1.8-3.8,5.03-5.03,4.84-6.64,7.59-3.13,4.65-4.27,6.36-4.84,6.17-4.84,6.17l-7.68,4.84s-8.63.66-9.77,1.04-3.61,0-3.61,0Z"/>
      <polygon class="cls-3" points="137.83 268.66 138.88 272.65 143.15 272.17 146.75 264.87 151.59 255 149.88 254.72 145.05 256.42 142.01 261.03 137.83 268.66"/>
      <path class="cls-3" d="M140.59,275.97c-.28,0-1.99,1.9-2.75,4.84s-4.84,6.83-4.27,9.01.27,2.75-.05,6.36-.8,4.21.72,6.71c1.52,2.49,2.09,4.01,3.04,5.15s2.85,2.37,3.32,2.47.66-6.01.66-6.01c0,0-.95-4.9-.66-9.17s1.23-7.4,1.23-9.2-1.23-10.15-1.23-10.15Z"/>
      <path class="cls-3" d="M135.65,314.01l1.8,8.54,2.47,3.61s1.61,2.85,3.32,5.12.57,2.18,4.55,6.45c3.98,4.27,5.98,6.17,7.12,7.97s4.55,4.65,4.55,4.65l5.22,2.09,10.34,6.74,4.61,2.94,12.94,1.9s-.19.85-4.17-.95-5.77-4.44-8.77-6.02-9.07-3.28-11.44-6.13c-2.37-2.85-9.49-7.78-10.63-9.3s-1.3-1.61-3.54-4.74c-2.24-3.13-5.85-7.97-5.85-7.97l-12.52-14.9Z"/>
      <path class="cls-3" d="M143.15,311.36s-.76,2.37-.85,2.66.19.66.95,3.04,1.71,4.65,3.13,6.36,2.47,2.37,4.55,5.31c2.09,2.94,3.32,3.92,4.84,6.23,1.52,2.31,1.8,2.88,3.51,4.68,1.71,1.8,4.93,5.12,6.26,6.17s1.23.99,4.36,3.06,3.42,2.16,5.41,3.3.31,1.33,4.33,2.94c4.02,1.61,5.07,1.8,7.15,3.51,2.09,1.71,6.17.95,5.22.57s-6.83-3.7-6.83-3.7c0,0,2.94,3.23-3.13-2.18-6.07-5.41-16.13-13-16.7-13.57s-3.61-2.94-3.61-2.94l-3.32-4.36s-2.09-2.94-3.23-4.27-2.28-2.18-3.61-3.8-3.51-3.7-3.51-3.7l-1.04-1.99-3.89-7.31Z"/>
      <path class="cls-3" d="M199.12,369.04l10.06-1.9,11.76-4.08,7.87-6.02,4.36-2.14,3.38-2.56-10.97,1.99-7.68,2.71s-7.5,2.76-8.82,2.59.76-3.43-6.02,0c-6.78,3.43-13.33,2.48-13.33,2.48,0,0,3.22,4.93,3.89,5.41s4.37,1.52,4.37,1.52h1.14Z"/>
      <path class="cls-3" d="M235.84,362.87l-2.06,1.34-9.8,6.06-6.07,2.37-3.64.47-7.08,1.99s-7.4.85-8.25,1.19-.76-2.23-.76-2.23c0,0,3.32-3.23,4.46-3.04,1.14.19,4.08,1.61,5.03,1.61s3.98-1.42,5.98-2.37.78.28,5.61-1.23c4.83-1.52,7.39-2.94,7.39-2.94,0,0-.85.95.76-.47,1.61-1.42,4.46-2.75,4.46-2.75h3.98Z"/>
      <path class="cls-3" d="M177.78,387.96c-.28.34-1.8.91-1.8.91l1.8,2.09,4.74.19,8.73-3.67s2.75,3.1,5.79,2.53,12.71-3.13,12.71-3.13c0,0-.85.66,1.23-.09s6.36-2.28,7.78-2.47c1.42-.19,6.55-1.61,6.55-1.61l7.31-3.13,6.74-3.24s2.85-1.5,5.31-3.4c2.47-1.9,7.68-5.12,7.68-5.12l7.4-7.31,2.85-6.83s-2.28,1.52-5.69,3.7c-3.42,2.18-7.74,5.5-7.74,5.5,0,0-1.94,2.09-6.87,5.5s-10.63,6.36-10.63,6.36c0,0-1.9.66-3.32,1.71s-4.17,2.56-5.6,3.04-4.93,1.14-6.45,1.71-5.41,1-5.41,1l-6.55,1.63-6.17.88-10.62,1.8-9.77,1.46Z"/>
      <path class="cls-3" d="M169.71,390.01l-2.5-.66-3.1-1.86-5.41-1.65-7.12-4.84h-4.74l2.18-2.18,4.55.85s3.04.76,3.89,1.61,3.23,1.52,3.98,1.9,1.71,1.23,1.71,1.23l4.05,1.42,3.07,1.04,2.09,1.08.76,1.19-3.42.85Z"/>
      <path class="cls-3" d="M236.5,387.48l.06-3.07s3.45-2.94,5.82-4.74,2.94-1.52,5.31-4.27,2.85-2.47,5.88-5.69,5.41-5.49,5.41-5.49c0,0,3.13-2.29,4.84-4.57s5.69-6.26,5.69-6.26c0,0,1.99-1.42,3.8-3.7,1.8-2.28,2.75-5.1,3.8-4.88s1.33,3.17,1.33,3.17c0,0,0,1.61-1.14,3.7s-.09.95-3.13,5.5c-3.04,4.55-7.21,9.58-7.21,9.58l-4.36,2.99s-3.23.52-5.5,2.61c-2.28,2.09-2.66,2.15-5.22,3.97s-6.93,5.32-6.93,5.32c0,0-1.99.67-3.13,1.71s-5.32,4.11-5.32,4.11Z"/>
      <path class="cls-3" d="M238.59,364.22l5.22-6.65s4.08-5.03,5.6-6.55,4.84-2.56,4.84-2.56c0,0,3.32-1.33,4.93-3.61,1.61-2.28,2.94-3.89,4.55-5.22s4.27-2.94,4.27-2.94l.19,3.8s.66-1.61-2.75,2.94-3.61,5.5-5.98,7.87-7.78,6.17-7.78,6.17l-6.26,4.27-6.83,2.48Z"/>
      <path class="cls-3" d="M283,328.62l-4.55,5.55.57,1.85-.57,4.36,3.32-.19s.47-1.61.85-3.61.85-4.27.85-4.27l-.47-3.7Z"/>
      <path class="cls-3" d="M281.67,310.12c-.66.28-3.23,3.23-3.23,3.23l-1.23,3.98-2.18,3.8s-4.08,3.23-4.74,3.23-4.17,3.23-4.17,3.23l-1.71,2.9,3.04,1.27s2.09-1.04,3.42-2.75,1.71-2.75,2.75-3.98,2.28-2.18,3.13-3.8.91-1.99,2.35-3.8,2.96-3.42,2.96-3.42l-.38-3.89Z"/>
      <path class="cls-3" d="M239.92,350.45l5.6-4.37,4.74-2.66.85-4.74s2.66-2.37,3.23-2.37,1.14,2.81,1.14,2.81l-2.47,2.6-2.37,3.08-3.42,3.09-5.12,3.04-2.18-.47Z"/>
      <path class="cls-3" d="M235.46,356.23c-.85.19,3.23-3.02-2.75.81-5.98,3.84-8.73,5.83-8.73,5.83l-4.08,2.28-1.8.99s-.09,1.95,2.94.63,4.36-1.99,4.36-1.99c0,0,5.22-4.17,6.26-4.08s-.28,1.23,3.04-.47c3.32-1.71,7.4-4.36,7.4-4.36,0,0,3.04-3.23,5.5-4.55,2.47-1.33,7.97-5.31,7.97-5.31,0,0,4.65-4.27,5.69-5.6s2.09-3.7,2.09-3.7l-1.71-1.17-3.98,6.3s-4.27,2.66-4.84,3.61-4.27,3.61-5.03,4.08-4.27,2.85-4.27,2.85l-3.61,2.09-4.46,1.8Z"/>
    </g>
  </g>
  <g id="Layer_2" data-name="Layer 2">
    <text class="cls-2" transform="translate(179.64 286.36)"><tspan class="cls-4" x="0" y="0">N</tspan><tspan x="45.39" y="0">O</tspan><tspan class="cls-6" x="103.54" y="0">C</tspan><tspan x="152.48" y="0">HE</tspan></text>
    <text class="cls-2" transform="translate(285.71 353.16)"><tspan x="0" y="0">LIR</tspan><tspan class="cls-4" x="104.23" y="0">I</tspan><tspan class="cls-5" x="119.08" y="0">O</tspan><tspan x="176.45" y="0">S</tspan></text>
    <path class="cls-1" d="M235.1,325.9c-3.61,3.48-9.29,5.93-13.69,5.93s-7.95-2.51-7.95-8.25c0-6.91,5.01-12.84,10.94-17.06-1.41-4.03-2.26-7.89-2.26-10.7,0-4.4,2.02-8.56,7.27-8.56,3.85,0,6.66,2.14,6.66,6.24,0,4.89-4.03,8.31-7.58,10.88,2.26,6.54,5.69,13.69,9.66,18.58,4.1-4.16,6.54-11.92,6.54-16.81,0-1.34.18-2.08,1.04-2.08.67,0,1.22.61,1.22,1.96,0,4.22-5.07,13.75-8.44,17.3,2.87,3.48,6.05,5.75,9.17,5.75s4.4-2.02,5.68-5.2c.24-.61.49-1.16.67-1.16.06,0,.06.18.06.24,0,.24-.06.49-.24,1.04-1.34,3.91-4.03,8.86-8.44,8.86-3.3,0-6.91-2.75-10.33-6.97ZM224.65,306.89c-4.46,3.73-7.15,8.56-7.15,13.63,0,5.81,3.36,8.68,7.82,8.68,3.06,0,6.72-1.41,9.41-3.67-4.1-5.14-7.76-12.23-10.09-18.64ZM232.96,293.56c0-3.36-1.04-5.68-3.91-5.68-3.06,0-3.24,2.75-3.24,4.03,0,2.93.92,7.27,2.45,11.8,2.75-2.32,4.71-5.62,4.71-10.15Z"/>
  </g>
</svg>