<?xml version="1.0" encoding="UTF-8"?>
<svg id="Layer_1" xmlns="http://www.w3.org/2000/svg" viewBox="0 0 218.8 90.6">
  <defs>
    <style>
      .cls-1 {
        fill: none;
      }

      .cls-2 {
        fill: #f3c349;
      }
    </style>
  </defs>
  <g id="Layer_3">
    <g>
      <path class="cls-2" d="M78.6,70l1.1-1.2,1.2-2.3,2-5.1,1.1-2.6s.7-1.2-.2.1-2.2,3-2.2,3l-1,1.9s.4.9.3,1.2.4-.4-.6.7c-1,1.1-1.4,1.2-1.5,1.7s-.4,1.4-.4,1.4l-1.1,1.5,1.4-.4"/>
      <path class="cls-2" d="M15.3,11.7l1.2-.5,1.2-1,1.3-1,2.9-1.6.4-.4,1.4-1.3.9-1-.7-1.2-2.1,1-4,1.7s-1.3.6-1.7,1-1.3,1.5-1.3,1.5v1.9l.5.8h0Z"/>
      <path class="cls-2" d="M26.9,5.1l.4-.9,2.6-1.7s1.9-1.1,3.8-1.2c1.9,0,3.8-.1,3.8-.1l2.7-.4,4.9-.7s2.3.6,2,.7,6.4-2.3-3.5,1.5c-10,3.7-13.1,4.5-13.1,4.5,0,0-3.7,1.6-5,2.4-1.2.8-2.7,2.2-2.7,2.2,0,0-.8.7-1.5.9s-1.9.6-2.1.3-.6-1.8-.6-1.8c0,0,3.2-.7,3.8-1.4s1.1-1.8,2.3-2.8,2.2-1.7,2.2-1.7l-.2.2h0Z"/>
      <path class="cls-2" d="M6.2,26.5l-.7-.3-.7-1.2.5-1.5.8-1.2,2.1-3.1s.6-1.4.7-1.5,1.1-1.1,1.1-1.1c0,0,1-1.2,1.6-1.6s1.4-1,1.4-1c0,0,.4,0,1.4-.6s3.2-1.7,3.2-1.7l-1.3,2s-.7.5-1.7,1.6-1.5,1.5-1.5,1.5l-1.4,1.5-1.4,1.6s-2.1,2.5-2.6,3.7-.4,1.3-.7,1.8-.9,1.2-.9,1.2h0Z"/>
      <path class="cls-2" d="M7.8,26.5l-.9.6s-.2.2-.9,0-1.4-.4-1.8-.3-1.2.3-1.7,1.4-1,3-1,3l-.8,4.6s.4-1.9-.2,2.5c-.7,4.3-.4,6.8-.4,6.8v2.5c0,0,1,1.5,1.3,2s.3,1.4.3,1.4c0,0,.8-1.4.8-1.5s.7-4.5.7-4.5c0,0,0-2.4.1-3.5s.1-1.8.6-2.8-.3.2.9-2.2,2.2-4.4,2.2-4.4l1-1.4,1.2-1.7,1.7-2.7s.6-1.2,1.2-2.2,1.4-2.7,1.4-2.7c0,0,.4-.7,1.7-3.1,1.3-2.4,2.1-3.3,2.1-3.3,0,0,1.3-1.9,1.6-2.3s-1.4.7-1.4.7l-1.3,1.7-2.1,3.1s-1.4,2-2,2.9-1.7,3.1-1.7,3.1l-1.4,2.8-1.1-.5h0Z"/>
      <path class="cls-2" d="M1.6,52.5s-.2-.5-.5.9,0,3.1,0,3.1l1.7,2.2.9,2.6s.4,1.2.8,1.9,1.6,3.8,1.6,3.8l.2.4,1.2,1.7,1.7,2.3,1.3,1.6,2.8,3.8s2.1,1.7,2.3,2.1-.9.6-.9.6l.3,1s1,1,1.8,1.6c.8.6.8.5,1.7,1.3s3.1,2.1,3.1,2.1c0,0,2.3-.2,3.6-.2,1.3,0,.6-1.6.6-1.6l-2.2-2.1-3.1-2.5s-4.1-2.7-4.4-3.3-.6-1.3-1-1.9-1.6-1.9-1.6-1.9c0,0-1.1-2.5-1.5-3.2s-.6-1.2-1.1-1.8-.6.2-1.4-1.5-1.5-2.5-2.2-3.5-2.2-2.9-2.2-2.9l-1.7-3.6-1.7-3.1h0Z"/>
      <path class="cls-2" d="M20.8,19.1l-1,1.4-1.1,2.3-.7,3-.7,1.7-.2.9s-.7,0-1,1.9c-.3,1.8-.6,4-.6,4l-.9,1.6-1,1.1.4,2.6.2,1.9s1.4,2.6,1.8,3.3.7,2.2.7,2.2c0,0,0,1.3.4,2.7.5,1.4,1.2,3.7,1.2,4.5s.7,1.2-.2,1-2.3-2.9-2.3-2.9c0,0-.5-3.3-.9-3.7s-.8-1-.8-1c0,0,0,2.9.4,4.1.2,1.2.6,1.9.7,3.3.2,1.4.8,2,0,2.1s-.3,2.9-1.4-.2c-1.2-3.2-1.3-5.2-1.3-5.2,0,0-.1-1.2-.6-1.7s-.8-1.4-.8-1.4c0,0,1.4-3.2,1.5-4s-.1-2.7-.1-2.7l-.9-.8-.4-3.1,1.1-4.6s0-1.8,1-3.8.8-2,1.5-3.2,1.1-2,1.8-3.2,1.7-2.6,1.7-2.6c0,0,1.1-2.4,1.8-2.4s.8.8.8.8l-.4.2h0Z"/>
      <path class="cls-2" d="M9.4,47s-.2-.6-.7,0-1.4,2.8-1.4,2.8c0,0-.6.1.5,2.6s1.7,5,1.7,5c0,0,0,.6.5,2.1s.6,2.3,1.7,4.2c1.1,1.9,1.4,2.2,2.1,3.3.7,1.2,1.6,2.3,2.2,3.1s1.2,1.4,1.2,1.4c0,0,1,.6,1.2.9s.7,1.1.7,1.1l-2.8-1.7s-.4-.2-1.3-1.7c-.9-1.5-2.6-3.5-3.5-4.8-.9-1.4-1-1.5-1.5-2.2-.5-.8-1.6-1.8-1.9-3.3s-2-7.1-2-7.1c0,0-.4-3.4-.5-4s-.2-8.2-.5-1.1c-.4,7.1.7,10.2.7,10.2,0,0,0,1.8.7,3s1.9,2.5,1.9,2.5c0,0,2.1,1.9,2.3,2.3s.8,1,1,1.5,1.2,1.9,1.6,2.7.9,1.6,1.4,2.2,1.2,1.3,1.9,2.1c.7.8,3.1,2.2,3.1,2.2,0,0,1,.4.5-.6s.3-.7.3-.7l1.1.4.2-1.9-1.3-2.2s-1.7-2.2-2.7-3.6-1.7-1.9-2.4-3.8-1-2.6-1-2.6l-2.9-5.6-.8-3.2s-.3-1.7-.5-2.7-.8-2.7-.8-2.7h0Z"/>
      <path class="cls-2" d="M21,14l-1.1.4s-.6,0-1.1,1.3-1,2.4-1,2.4l-1.5,1.3-1.8,3.1-.8.7-3,3.5s-.7,1.8-1,2.5-1.2,2.2-1.2,2.2v5.2c.1,0-.3,1.8-.3,1.8l.2,2.2v1.8c0,0-.7,1.9-.6,2.4s.8,1.1.8,1.1l1.5-1.3.6-2.3v-3.3c-.1,0,0-2.1.4-3.3s.7-4.1.7-4.1c0,0,.2-2.3.4-2.9s0,0,.7-1.6,2.2-3.8,2.5-4.1,1.4-1.8,1.8-2.4.7-1,1.3-1.8,1.8-2.6,2-2.7.6-2.1.6-2.1h0Z"/>
      <path class="cls-2" d="M7.5,31.6l-.2,2.2s-.6,1.7-.9,2.5c-.3.8-.7,2.4-.7,2.4l-.9,1.7s1.6.5,1.6.8-.2,2.4-.2,2.4l.3,2.4s1.2.2,1.1-.2,0-1.4-.2-2,0-1.2-.2-2,0-1.7-.1-1.9-.5.2-.3-.9.7-2.6.9-2.9,0-.2.2-.9,0-1.5,0-1.5l-.4-2h0Z"/>
      <path class="cls-2" d="M22.3,61.6l-1.1-.8-1.8-2.3-.8-1.4-.7-1-.8-.8s-.5-.2-.4.2c0,.5-.1,1,.4,2.1s.7,1.4,1.2,1.9,1.2,1.5,1.2,1.5l-.4,1.5-.5.7-1.5-.6-1.1-1.9-.9-1.5-.8-1.4s-1.8-2.8-1.9-3.4-.5-2.7-.5-2.7l.2,2.6s0,1.5.4,2,.5.6.9,1.7c.4,1.1.7,1.7,1.3,2.8s.3,1.9,1.1,3,1.7,2.2,2.1,2.8,1.4,2.2,1.8,2.7c.4.5.6.2,1.2,1.2s1,1.6,2.1,2.7c1,1.1.2,1.4,2.4,2.1,2.1.6,2.8.6,4.2,1.2,1.3.6,5.2,2.8,1.9.2-3.2-2.7-4.6-4-4.6-4,0,0-.9,0-2-1s-2.3-1.5-2.7-2.3-1-.9-.7-1.7.7-2.3.7-2.3c0,0-.2-1.4.5-.7s1.7,1.7,1.7,1.7l.3,1.7,1.3,1,3,3s1.3.2,1.7.7,1.2,1.1,2.3,1.6-.8.4,3.5,1.1c4.2.7,5.7.8,6.2.9s1.5-.5,1.5-.5c0,0,.2-1-.6-1.1s-5.4-.6-5.4-.6l-4.9-1.7s-1.2-.6-1.9-1.7-1.7-1.9-2.3-2.7-1.7-2.1-1.7-2.1l-3-2.5-1.8-2h0Z"/>
      <path class="cls-2" d="M25.2,81.3l-2-.7-.9-1.2-1.2-1-1.5-.5-.8-1s0,0,2.3.3c2.2.4,3,.6,3.6,1.2s1.4.9,1.6,1.5.1,1.1.1,1.1l-1.2.2h0Z"/>
      <path class="cls-2" d="M32.1,79s-.2-.7-.8-.5-.8.6-.8.6l2.9,1.1h.9c0,0,5.4.9,5.4.9,0,0,.9-.5,2-.6,1.1,0,2.2,0,2.2,0,0,0,1.1-.2,2.2-.4s2.2-.3,3.3-.3h6.3l3.6-1.5,2.3-1.2.8-.9-5,.4s-2.9,1.3-3.4,1.5-3,0-3,0c0,0-12.2.8-12.5.8s-1.8,0-1.8,0h-4.6s0,0,0,0Z"/>
      <path class="cls-2" d="M27.6,81.7c-.3.2-1.1.4-1.1.4l1,1.4,5.6,1.7s.2,1.4,1.6,1.7c1.3.3,4.6-.8,5.6-.7,1,.1.6,1.1,2.8.7s4-.4,5.3-.6c1.3-.2,2,.2,3.1-.2s2.3-.6,3.7-1c1.4-.4,2.6-.9,2.6-.9l.7-.8s3.2-1.7-2.5,0c-5.6,1.8-10.1,1-10.7,1.1-.6.1-3.5.2-3.5.2h-3.4s-2.1-.2-4.2-.8c-2.1-.6-3.2-.8-3.4-.9s-3.2-1.5-3.2-1.5h0Z"/>
      <path class="cls-2" d="M28.4,84.8s-.3-.5-.8,0-1.4,1.7-.3,2.1.4,0,1.8.7c1.4.7.2.6,2.2,1.1s2.4.7,3.6,1c1.2.2,1.4.6,3.3.4,1.9-.2,1.7-.4,3.4-.2,1.7.2,2.3,0,3.2.4.8.3,2.7.5,4.4.3,1.6-.2,2.2-.3,2.8-.5.6-.2.1-.2,1.6-.6s2.9-.6,2.9-.6c0,0,3.7-.7,4.7-1.2s1.6-1,2.6-1.1,1.5-.3,2.7-.7,2.8-1.3,3.6-1.9c.8-.6,1.9-1.3,2.5-1.9s1.8-1.8,1.8-1.8c0,0,.6-1.2-2.4.4-3,1.7-4.8,3.2-4.8,3.2l-5.3,2s-2.1,0-3,.3-3.5,1.4-3.5,1.4c0,0-.5,0-2.4.3s-3.7.5-3.7.5c0,0-2.8.1-3.7,0-.9-.2-4.3-.5-5.5-.2-1.2.2-2.7.2-3.7.2s-2.4,0-3-.4c-.6-.3-3.2-1.4-3.2-1.4l-1.9-.8v-1h0,0Z"/>
      <path class="cls-2" d="M19,36.1c-.1-.2-.5-1.9-.7-1.8s-2.3,1.8-2.3,1.8c0,0,.6,1.5.6,2.2s.4,2.3.4,2.3c0,0,0,2.1.2,2.7s.7,2.1,1,1.7.4-1.3.4-1.3l-1,2.6,1.9,3.6.7,4.3s.5,1.7.8,2.7.7,2.1.7,2.1c0,0,1,1.6,1.9,2.5s1.3.5,2.2,2.3c.9,1.7,2.1,2.8,2.7,3.5s-.2.6,1.6,1.9c1.7,1.3,3.2,2.3,3.2,2.3l4.2,1.8,2,.3s1.9-.5.7-1.2c-1.3-.7-1.8-.6-2.9-1.3-1.2-.7-2.5-2-2.5-2,0,0-.6-.7-2.2-2.2s-5.6-4.9-5.6-4.9c0,0-3.2-5.2-3.7-6.6s-1.2-3.1-1.2-3.1c0,0-.6-2-.7-2.8s-.9-2.5-.9-2.5l-.7-1.7-.2-2.4s0-2.4.2-3.2c.2-.7-.1-2.1-.1-2.1l-.8-1.6h0Z"/>
      <path class="cls-2" d="M22.4,21.3l.5-1.1s.8-2,1.6-3.1,1.4-1.6,2.3-2.5,2.8-2.4,2.8-2.4c0,0,3.3-2.2,4.2-2.9s1.7-1.1,3.3-2,3-1.6,3-1.6c0,0,2-.5,3.7-1.2s4-1.2,4-1.2l3.2-.4,9.5-.7.8-1.3-3.1-.9-4.2,1.1-4.5-.5-7.8,3.4s-4,1.8-5.5,2.4c-1.5.7-4.6,1.1-4.6,1.1l-8.9,6.2-1.1,1.8-.9,4.6-1.2,3s-.5,1.4-.9,2.5-1.1,2.7-1.2,3,1,.8,1,.8l1.8-1.1-.3,1.8-.3.7-.2,2.4,3.1-.9.2-2.5.2-2.9s.2-2.8.4-3.3.2-1.4.3-1.9-1.2-.7-1.2-.7h0Z"/>
      <path class="cls-2" d="M27.7,17.6s0-.7.7-1.6,3.4-3.5,3.4-3.5c0,0,2.9-2.1,4.1-2.9s2.2-1.2,3.2-1.8,3.2-1.4,3.2-1.4c0,0,3.5-1.6,4.9-2.1s1.6-.6,2.7-.7,1.5-.2,2.6-.3,5.7,0,6.2,0,.5,0,3.3.7c2.8.7,5.5,1.4,6.6,1.8,1.1.4,2.2,1.2,2.2,1.2l-1.8-.2-6.8-1.1-11.1-1.8-3.6,2.9s-.7.7-2,2c-1.3,1.3-2.6,1.8-3.5,2.9s-1.7,1.8-2.3,2.5-2.6,2.4-2.6,2.4l-3.7,1.6s-3.8-.3-4.3-.2-1.6-.3-1.6-.3h0Z"/>
      <polygon class="cls-2" points="26.2 25 26.4 26.9 28.3 27 30.4 24 33.2 19.9 32.5 19.7 30.3 20.1 28.6 21.9 26.2 25"/>
      <path class="cls-2" d="M26.9,28.5c-.1,0-1,.7-1.6,2s-2.6,2.7-2.6,3.7,0,1.2-.5,2.8-.7,1.8-.2,3.1c.5,1.2.6,2,.9,2.5s1.1,1.3,1.2,1.3.7-2.7.7-2.7c0,0,0-2.3.4-4.2.4-1.9,1.1-3.2,1.2-4s.2-4.6.2-4.6h0Z"/>
      <path class="cls-2" d="M21.8,45.2v4c.1,0,.9,1.8.9,1.8,0,0,.5,1.4,1.1,2.5s0,1,1.5,3.2c1.4,2.2,2.1,3.2,2.5,4.1s1.6,2.4,1.6,2.4l2.1,1.3,4,3.8,1.8,1.7,5.5,1.8s-.2.4-1.7-.7-2.2-2.4-3.4-3.3-3.7-2.2-4.5-3.6-3.5-4.2-3.9-5-.4-.8-1.2-2.4-1.9-4-1.9-4l-4.3-7.6h0Z"/>
      <path class="cls-2" d="M25.3,44.5l-.6,1.1c0,.1,0,.3.2,1.4s.4,2.2.9,3.1.9,1.2,1.6,2.7c.7,1.5,1.2,2,1.6,3.2.5,1.2.6,1.4,1.2,2.3.6.9,1.7,2.7,2.2,3.2s.5.5,1.7,1.7c1.2,1.2,1.3,1.2,2.1,1.9s0,.6,1.7,1.6c1.6,1,2.1,1.2,2.8,2.1.8.9,2.6.9,2.2.7s-2.7-2.2-2.7-2.2c0,0,1,1.7-1.2-1.2-2.2-2.9-6-7-6.2-7.3s-1.3-1.6-1.3-1.6l-1.1-2.2s-.7-1.5-1.1-2.2-.8-1.2-1.3-2-1.2-1.9-1.2-1.9l-.3-1-1.1-3.6h0Z"/>
      <path class="cls-2" d="M45.2,74.5h4.5c0,0,5.4-1.1,5.4-1.1l3.9-2.1,2.1-.6,1.7-.9h-4.9c0,0-3.6.7-3.6.7,0,0-3.5.7-4,.5s.6-1.5-2.6-.4c-3.2,1-6,.1-6,.1,0,0,1,2.4,1.3,2.7s1.8,1,1.8,1h.5c0,0,0,0,0,0Z"/>
      <path class="cls-2" d="M61.7,74.5l-1,.4-4.7,2-2.8.6h-1.6c0,0-3.2.3-3.2.3,0,0-3.3-.2-3.7,0s-.2-1.1-.2-1.1c0,0,1.7-1.2,2.2-1s1.7,1,2.1,1.1,1.8-.3,2.8-.6.3.2,2.5-.1,3.4-.8,3.4-.8c0,0-.4.4.4-.2s2.2-.9,2.2-.9l1.7.3h0Z"/>
      <path class="cls-2" d="M34.5,81.4c-.2.1-.8.3-.8.3l.6,1.1,2.1.4,4.1-1s1,1.6,2.3,1.6c1.4,0,5.8-.5,5.8-.5,0,0-.4.2.5,0,1-.2,2.9-.6,3.6-.5s3-.2,3-.2l3.4-.9,3.2-.9s1.3-.5,2.6-1.1,3.7-1.7,3.7-1.7l3.8-2.7,1.7-2.8s-1.1.5-2.7,1.2c-1.7.7-3.8,1.9-3.8,1.9,0,0-1,.8-3.4,2-2.4,1.2-5.1,2.1-5.1,2.1,0,0-.9.2-1.6.5s-2,.8-2.7.9-2.2.2-2.9.3-2.4,0-2.4,0l-3,.2h-2.7c0,0-4.7,0-4.7,0h-4.4c0,0,0-.1,0-.1Z"/>
      <path class="cls-2" d="M30.8,81.7l-1-.5-1.2-1.1-2.2-1.2-2.7-2.7-2.1-.3,1.1-.8,1.9.7s1.3.6,1.6,1,1.3.9,1.6,1.2.7.7.7.7l1.7.9,1.2.7.8.6.2.6h-1.6c0,.1,0,.1,0,.1Z"/>
      <path class="cls-2" d="M60.1,85.5l.2-1.4s1.7-1.1,2.9-1.7,1.4-.5,2.6-1.5c1.2-1.1,1.4-.9,3-2.1s2.8-2.1,2.8-2.1c0,0,1.5-.8,2.5-1.7s3-2.4,3-2.4c0,0,1-.5,1.9-1.4,1-.9,1.6-2.1,2-1.9s.3,1.5.3,1.5c0,0-.1.7-.8,1.6s-.1.4-1.8,2.2c-1.7,1.8-3.9,3.7-3.9,3.7l-2.1,1s-1.4,0-2.6.7c-1.2.8-1.3.8-2.6,1.4s-3.4,1.9-3.4,1.9c0,0-.9.2-1.5.5s-2.6,1.4-2.6,1.4h0Z"/>
      <path class="cls-2" d="M62.8,75.3l2.8-2.6s2.2-1.9,2.9-2.5,2.3-.8,2.3-.8c0,0,1.6-.3,2.4-1.2s1.6-1.5,2.4-2,2.1-1,2.1-1l-.2,1.7s.4-.7-1.4,1.1-2,2.2-3.2,3.1-3.9,2.2-3.9,2.2l-3.1,1.4-3.2.6h0Z"/>
      <path class="cls-2" d="M84.8,62.6l-2.4,2.2v.9c0,0-.5,1.9-.5,1.9l1.5.2s.3-.7.7-1.6.7-1.8.7-1.8v-1.7h0Z"/>
      <path class="cls-2" d="M85.6,54.2c-.3,0-1.7,1.2-1.7,1.2l-.8,1.7-1.2,1.5s-2,1.2-2.3,1.1-2.1,1.1-2.1,1.1l-1,1.2,1.2.8s1-.3,1.7-1c.7-.7,1-1.1,1.5-1.6s1.2-.8,1.7-1.5.6-.8,1.3-1.5,1.6-1.3,1.6-1.3v-1.8h.2Z"/>
      <path class="cls-2" d="M64.4,69.2l2.8-1.5,2.3-.8.7-2.1s1.3-.9,1.6-.8.3,1.3.3,1.3l-1.3,1-1.3,1.2-1.7,1.1-2.5,1-.9-.4h0Z"/>
      <path class="cls-2" d="M62,71.5c-.4,0,1.6-1.1-1.2.2-2.9,1.3-4.2,2-4.2,2l-1.9.7-.9.3s-.2.9,1.2.5,2.1-.6,2.1-.6c0,0,2.6-1.5,3-1.4s-.2.5,1.4,0c1.6-.5,3.6-1.4,3.6-1.4,0,0,1.6-1.2,2.7-1.6s3.9-1.8,3.9-1.8c0,0,2.3-1.6,2.9-2.1s1.2-1.5,1.2-1.5l-.7-.7-2.2,2.5s-2.1.9-2.4,1.2-2.1,1.3-2.5,1.5-2.1,1-2.1,1l-1.7.7-2.1.5h0Z"/>
    </g>
  </g>
  <g>
    <rect class="cls-1" x="44.8" y="12" width="137.9" height="34.7"/>
    <path d="M45.3,40.1c1.2-.2,2-1.1,2-3.2V15.4c0-2.2-.8-3-2-3.2v-.2h4.3l15.6,23.2V15.4c0-2.2-.8-3-2-3.2v-.2h4.5v.2c-1.3.3-2,1-2,3.2v24.9h-.4l-17.5-26c0,.3,0,.7,0,1.1v21.5c0,2.2.7,3,2,3.2v.2h-4.5v-.2h0Z"/>
    <path d="M82.4,11.6c8.3,0,13.9,5.6,13.9,14.5s-5.6,14.5-13.9,14.5-13.9-5.6-13.9-14.5,5.6-14.5,13.9-14.5ZM82.4,40.3c6.6,0,11.1-4.5,11.1-14.2s-4.5-14.2-11.1-14.2-11.1,4.5-11.1,14.2,4.4,14.2,11.1,14.2Z"/>
    <path d="M120.2,20.1c-1.7-4.6-4.8-8.1-9.8-8.1s-9.8,4.5-9.8,14.2,4.1,14.2,9.8,14.2,8.1-3.5,9.8-8.1l1.7,1.2c-1.2,3.3-5,7.3-11.3,7.3s-12.8-5.6-12.8-14.5,5.3-14.5,12.8-14.5,10.1,4,11.3,7.3l-1.7,1.2h0Z"/>
    <path d="M122.3,40.1c1.2-.2,2-1.1,2-3.2V15.4c0-2.2-.8-3-2-3.2v-.2h6.9v.2c-1.3.3-2,1-2,3.2v11.2h14.4v-11.2c0-2.2-.8-3-2-3.2v-.2h6.9v.2c-1.3.3-2,1-2,3.2v21.5c0,2.2.7,3,2,3.2v.2h-6.9v-.2c1.2-.2,2-1.1,2-3.2v-9.9h-14.4v9.9c0,2.2.7,3,2,3.2v.2h-6.9v-.2h0Z"/>
    <path d="M153.7,39.9h7c3.8,0,6.1-2.6,6.9-6.5h.2l-1,6.9h-19.3v-.2c1.2-.2,2-1.1,2-3.2V15.4c0-2.2-.8-3-2-3.2v-.2h19.3l1,5.3h-.2c-.6-2.9-2.7-4.9-5.2-4.9h-8.6c-1,0-1.4,1.2-1.4,3.1v9.7h6c1.8,0,4.2,0,4.4-2.4h.2v5.6h-.2c-.2-2.6-2.6-2.8-4.4-2.8h-6v11.4c0,1.8.4,3.1,1.4,3.1h0Z"/>
  </g>
  <g>
    <rect class="cls-1" x="80.9" y="43.8" width="137.9" height="34.7"/>
    <path d="M88.3,43.8v.2c-1.3.3-2,1-2,3.2v21.5c0,1.8.5,2.6,1.4,3.1h8.6c2.6,0,4.7-2,5.2-4.9h.2l-1,5.3h-19.3v-.2c1.2-.2,2-1.1,2-3.2v-21.5c0-2.2-.8-3-2-3.2v-.2h6.9Z"/>
    <path d="M102.5,72c1.2-.2,2-1.1,2-3.2v-21.5c0-2.2-.8-3-2-3.2v-.2h6.9v.2c-1.3.3-2,1-2,3.2v21.5c0,2.2.7,3,2,3.2v.2h-6.9v-.2Z"/>
    <path d="M120.7,60.7h-4.7v8c0,2.2.7,3,2,3.2v.2h-6.9v-.2c1.2-.2,2-1.1,2-3.2v-21.5c0-2.2-.8-3-2-3.2v-.2h9.5c7.3,0,12,3,12,8.7s-2.3,7.3-9.1,8c3.1.3,6.4,1.3,7.3,4.4l1.4,5.1c.4,1.3,1.4,2,3.4,2.2h0c-3,.1-5.7,0-6.3-2.2l-1.5-5.1c-1-3.5-4.1-4.1-7.2-4.2h0ZM120.9,60.3c6.5,0,8.9-2.8,8.9-7.5s-3.3-8.6-9.1-8.6h-2.9c-1.8,0-1.8.6-1.8,3.1v13.1h4.9Z"/>
    <path d="M136.2,72c1.2-.2,2-1.1,2-3.2v-21.5c0-2.2-.8-3-2-3.2v-.2h6.9v.2c-1.3.3-2,1-2,3.2v21.5c0,2.2.7,3,2,3.2v.2h-6.9v-.2Z"/>
    <path d="M158.5,43.4c8.3,0,13.9,5.6,13.9,14.5s-5.6,14.5-13.9,14.5-13.9-5.6-13.9-14.5,5.6-14.5,13.9-14.5ZM158.5,72.1c6.6,0,11.1-4.5,11.1-14.2s-4.5-14.2-11.1-14.2-11.1,4.5-11.1,14.2,4.4,14.2,11.1,14.2Z"/>
    <path d="M194.1,50.7l-1.7,1.2c-1.8-4.9-4.8-8.1-8.9-8.1s-5.6,2-5.6,5.1c0,8.3,16.4,7.3,16.4,16.4s-4.7,7.1-9.4,7.1-10-4-11.2-7.3l1.7-1.2c1.7,4.5,4.8,8.1,9.9,8.1s6.2-1.6,6.2-5.3c0-8.8-16.2-7.2-16.2-16.4s3.2-7,8.3-7,8.8,2.7,10.5,7.3Z"/>
  </g>
  <path d="M64,58.8c-1.9,1.8-4.8,3.1-7.1,3.1s-4.1-1.3-4.1-4.3,2.6-6.7,5.7-8.9c-.7-2.1-1.2-4.1-1.2-5.6,0-2.3,1.1-4.4,3.8-4.4s3.5,1.1,3.5,3.2-2.1,4.3-3.9,5.6c1.2,3.4,3,7.1,5,9.6,2.1-2.2,3.4-6.2,3.4-8.7s0-1.1.5-1.1.6.3.6,1c0,2.2-2.6,7.1-4.4,9,1.5,1.8,3.2,3,4.7,3s2.3-1.1,3-2.7c.1-.3.2-.6.3-.6s0,0,0,.1c0,.1,0,.2-.1.5-.7,2-2.1,4.6-4.4,4.6s-3.6-1.4-5.4-3.6h0ZM58.5,48.9c-2.3,1.9-3.7,4.4-3.7,7.1s1.7,4.5,4.1,4.5,3.5-.7,4.9-1.9c-2.1-2.7-4-6.3-5.2-9.7h0ZM62.8,42c0-1.7-.5-3-2-3s-1.7,1.4-1.7,2.1c0,1.5.5,3.8,1.3,6.1,1.4-1.2,2.4-2.9,2.4-5.3h0Z"/>
</svg>